<svg xmlns="http://www.w3.org/2000/svg" viewBox="0 0 50 50"><defs><style>.cls-1{fill:#fff;}</style></defs><g id="Capa_2" data-name="Capa 2"><g id="Capa_1-2" data-name="Capa 1"><path class="cls-1" d="M37.19,30.41a1.4,1.4,0,0,1,.41.27v.94a7.46,7.46,0,0,1-.54,1.89,4,4,0,0,1-.68.82c-.28.26-.55.4-.82.67l-.27.27c-.28.27-.55.27-1,.54a5.05,5.05,0,0,1-2,.54H30.93c-.41-.13-1-.13-1.37-.27A24.41,24.41,0,0,1,19.75,31a7.43,7.43,0,0,0-1.09-1.08l-.54-.54a22.45,22.45,0,0,1-5-6.9l-.14-.4a9.19,9.19,0,0,1-.49-1.51,7.14,7.14,0,0,1-.19-1.6,6.88,6.88,0,0,1,1.5-4.19c.27-.27.41-.54.68-.81s.55-.41.82-.54l.13-.14c.28,0,.55-.13.82-.13h1.5a1.55,1.55,0,0,1,.95.67,50.18,50.18,0,0,1,2.18,5.14,1.64,1.64,0,0,1-.27,1.35c-.27.27-.41.68-.68.95s-.95,1.08-.95,1.08-.14.4-.14.67.14.41.27.54l.14.27A14.94,14.94,0,0,0,21.8,27c.27.27.68.54.95.81a11,11,0,0,0,1.82,1.43,16.63,16.63,0,0,0,2.13,1.14l.68.27a1.09,1.09,0,0,0,.55.27h.14a.76.76,0,0,0,.68-.41l1.73-2,.31-.34a2,2,0,0,1,.95-.27c.14,0,.28.14.41.14,1.37.67,3.55,1.62,3.55,1.62Z"/><path class="cls-1" d="M40.46,9.46a21.71,21.71,0,0,0-37,15.41A22,22,0,0,0,6.68,36.22l.54.81L5,45l8.17-2,.82.41a21.47,21.47,0,0,0,11,3A21.81,21.81,0,0,0,40.46,40a21.39,21.39,0,0,0,0-30.54ZM36,42.3a20,20,0,0,1-10.76,3.11,20.43,20.43,0,0,1-10.5-2.84l-.81-.41L6,44.19l2-7.7-.55-.81A20.36,20.36,0,0,1,14.17,7.43a20.68,20.68,0,0,1,28.47,6.62A20.33,20.33,0,0,1,36,42.3Z"/><path class="cls-1" d="M37.19,30.41l-1.49-.68s-2.18-.95-3.55-1.62c-.13,0-.27-.14-.41-.14a2,2,0,0,0-.95.27l-.31.34-1.73,2a.76.76,0,0,1-.68.41h-.14a1.09,1.09,0,0,1-.55-.27l-.68-.27a16.63,16.63,0,0,1-2.13-1.14,11,11,0,0,1-1.82-1.43c-.27-.27-.68-.54-.95-.81a14.94,14.94,0,0,1-2.59-3.25l-.14-.27c-.13-.13-.13-.27-.27-.54s0-.54.14-.67.54-.68.95-1.08.41-.68.68-.95a1.64,1.64,0,0,0,.27-1.35,50.18,50.18,0,0,0-2.18-5.14,1.55,1.55,0,0,0-.95-.67h-1.5c-.27,0-.54.13-.82.13l-.13.14c-.27.13-.55.4-.82.54s-.41.54-.68.81a6.88,6.88,0,0,0-1.5,4.19,7.14,7.14,0,0,0,.19,1.6A9.19,9.19,0,0,0,12.94,22l.14.4a22.45,22.45,0,0,0,5,6.9l.54.54A7.43,7.43,0,0,1,19.75,31a24.41,24.41,0,0,0,9.81,5.13c.41.14,1,.14,1.37.27h1.36a5.05,5.05,0,0,0,2-.54c.41-.27.68-.27,1-.54l.27-.27c.27-.27.54-.41.82-.67a4,4,0,0,0,.68-.82,7.46,7.46,0,0,0,.54-1.89v-.94A1.4,1.4,0,0,0,37.19,30.41Zm0,0-1.49-.68s-2.18-.95-3.55-1.62c-.13,0-.27-.14-.41-.14a2,2,0,0,0-.95.27l-.31.34-1.73,2a.76.76,0,0,1-.68.41h-.14a1.09,1.09,0,0,1-.55-.27l-.68-.27a16.63,16.63,0,0,1-2.13-1.14,11,11,0,0,1-1.82-1.43c-.27-.27-.68-.54-.95-.81a14.94,14.94,0,0,1-2.59-3.25l-.14-.27c-.13-.13-.13-.27-.27-.54s0-.54.14-.67.54-.68.95-1.08.41-.68.68-.95a1.64,1.64,0,0,0,.27-1.35,50.18,50.18,0,0,0-2.18-5.14,1.55,1.55,0,0,0-.95-.67h-1.5c-.27,0-.54.13-.82.13l-.13.14c-.27.13-.55.4-.82.54s-.41.54-.68.81a6.88,6.88,0,0,0-1.5,4.19,7.14,7.14,0,0,0,.19,1.6A9.19,9.19,0,0,0,12.94,22l.14.4a22.45,22.45,0,0,0,5,6.9l.54.54A7.43,7.43,0,0,1,19.75,31a24.41,24.41,0,0,0,9.81,5.13c.41.14,1,.14,1.37.27h1.36a5.05,5.05,0,0,0,2-.54c.41-.27.68-.27,1-.54l.27-.27c.27-.27.54-.41.82-.67a4,4,0,0,0,.68-.82,7.46,7.46,0,0,0,.54-1.89v-.94A1.4,1.4,0,0,0,37.19,30.41ZM42.78,7.3A24.9,24.9,0,0,0,.27,24.87,25.94,25.94,0,0,0,3.54,37.16L0,50l13.21-3.38a24.48,24.48,0,0,0,11.86,3A25,25,0,0,0,50,24.73,24.42,24.42,0,0,0,42.78,7.3ZM36,42.3a20,20,0,0,1-10.76,3.11,20.43,20.43,0,0,1-10.5-2.84l-.81-.41L6,44.19l2-7.7-.55-.81A20.36,20.36,0,0,1,14.17,7.43a20.68,20.68,0,0,1,28.47,6.62A20.33,20.33,0,0,1,36,42.3ZM35.7,29.73s-2.18-.95-3.55-1.62c-.13,0-.27-.14-.41-.14a2,2,0,0,0-.95.27l-.31.34-1.73,2a.76.76,0,0,1-.68.41h-.14a1.09,1.09,0,0,1-.55-.27l-.68-.27a16.63,16.63,0,0,1-2.13-1.14,11,11,0,0,1-1.82-1.43c-.27-.27-.68-.54-.95-.81a14.94,14.94,0,0,1-2.59-3.25l-.14-.27c-.13-.13-.13-.27-.27-.54s0-.54.14-.67.54-.68.95-1.08.41-.68.68-.95a1.64,1.64,0,0,0,.27-1.35,50.18,50.18,0,0,0-2.18-5.14,1.55,1.55,0,0,0-.95-.67h-1.5c-.27,0-.54.13-.82.13l-.13.14c-.27.13-.55.4-.82.54s-.41.54-.68.81a6.88,6.88,0,0,0-1.5,4.19,7.14,7.14,0,0,0,.19,1.6A9.19,9.19,0,0,0,12.94,22l.14.4a22.45,22.45,0,0,0,5,6.9l.54.54A7.43,7.43,0,0,1,19.75,31a24.41,24.41,0,0,0,9.81,5.13c.41.14,1,.14,1.37.27h1.36a5.05,5.05,0,0,0,2-.54c.41-.27.68-.27,1-.54l.27-.27c.27-.27.54-.41.82-.67a4,4,0,0,0,.68-.82,7.46,7.46,0,0,0,.54-1.89v-.94a1.4,1.4,0,0,0-.41-.27Z"/></g></g></svg>