<?xml version="1.0" encoding="utf-8"?>
<!-- Generator: Adobe Illustrator 25.3.1, SVG Export Plug-In . SVG Version: 6.00 Build 0)  -->
<svg version="1.1" id="Capa_2" xmlns="http://www.w3.org/2000/svg" xmlns:xlink="http://www.w3.org/1999/xlink" x="0px" y="0px"
	 viewBox="0 0 466.5 405.9" style="enable-background:new 0 0 466.5 405.9;" xml:space="preserve">
<style type="text/css">
	.st0{clip-path:url(#SVGID_2_);}
	.st1{fill:url(#SVGID_3_);}
	.st2{enable-background:new    ;}
	.st3{fill:#FFFFFF;}
	.st4{fill:#B4B400;}
</style>
<g>
	<g>
		<defs>
			<path id="SVGID_1_" d="M3.3,264.6c6.9,25.9,24.1,47.3,48.3,63.4l5.9,22.2c3.2,11.9,11.5,20.1,18.5,18.2l33.8-9.1
				c47.8,40.1,112.6,57.1,176.1,40.1S397,335.2,418.3,276.6l33.8-9.1c7-1.9,10.2-13.1,6.9-25l-5.9-22.2c12.9-26.1,17.1-53.2,10.1-79
				c-6.9-25.9-24.1-47.3-48.3-63.4L409,55.7c-3.2-11.9-11.5-20-18.5-18.2l-33.8,9.1C309,6.6,244.1-10.5,180.7,6.6
				S69.6,70.7,48.2,129.3l-33.8,9.1c-7,1.9-10.2,13.1-7,25l5.9,22.2C0.5,211.6-3.6,238.7,3.3,264.6z"/>
		</defs>
		<clipPath id="SVGID_2_">
			<use xlink:href="#SVGID_1_"  style="overflow:visible;"/>
		</clipPath>
		<g class="st0">
			<g id="Prtl4D.tif">
				
					<image style="overflow:visible;enable-background:new    ;" width="756" height="500" id="Capa_1-2" xlink:href="89485207FE8EDE77.png"  transform="matrix(0.8114 -0.2174 0.2174 0.8114 -131.6801 82.0919)">
				</image>
				
					<radialGradient id="SVGID_3_" cx="159.5486" cy="173.8651" r="224.5581" gradientTransform="matrix(0.9659 -0.2588 -0.2588 -0.9659 123.9067 411.2064)" gradientUnits="userSpaceOnUse">
					<stop  offset="0" style="stop-color:#000000;stop-opacity:0"/>
					<stop  offset="1" style="stop-color:#000000;stop-opacity:0.85"/>
				</radialGradient>
				<polygon class="st1" points="-51.3,60.6 408.6,-62.7 517.4,343.4 57.5,466.6 				"/>
			</g>
		</g>
	</g>
	<g id="Capa_3_copia">
		<g class="st2">
			<path class="st3" d="M126,273.9l4.3,6.7l-1.3,0.8l-5.3-8.1l14.3-9.3l0.9,1.5L126,273.9z"/>
		</g>
		<g class="st2">
			<path class="st3" d="M130.8,283.7l-1.2-1.5l17.7-5.2l1.1,1.3l-8.4,16.5l-1.2-1.5l2.2-4.3l-5.6-6.7L130.8,283.7z M137,281.7
				l4.8,5.7l4.5-8.6L137,281.7z"/>
		</g>
		<g class="st2">
			<path class="st3" d="M157.8,306.5L157.8,306.5l13.1-7.8l2.1,1.6l-10.3,13.7l-1.4-1l8.9-11.9l0,0l-13.9,8.1l-0.7-0.6l4-15.6l0,0
				l-8.9,11.9l-1.4-1l10.3-13.7l2.1,1.6L157.8,306.5z"/>
		</g>
		<g class="st2">
			<path class="st3" d="M167.6,316.7l-1.7-0.9l14.4-11.5l1.5,0.8l-1.5,18.4l-1.7-0.9l0.4-4.8l-7.7-4.1L167.6,316.7z M172.7,312.6
				l6.6,3.5l0.9-9.7L172.7,312.6z"/>
		</g>
		<g class="st2">
			<path class="st3" d="M189.4,308.7l5.3,1.9c1,0.4,1.9,0.9,2.8,1.6c0.9,0.7,1.6,1.5,2.2,2.5c0.6,1,0.9,2,1,3.2
				c0.1,1.2,0,2.4-0.5,3.8c-0.5,1.3-1.2,2.4-2,3.2c-0.9,0.8-1.8,1.4-2.9,1.8c-1.1,0.4-2.1,0.5-3.3,0.5c-1.1,0-2.2-0.2-3.2-0.6
				l-5.3-1.9L189.4,308.7z M185.8,323.8l3.2,1.2c1.2,0.4,2.3,0.6,3.4,0.6c1-0.1,2-0.3,2.8-0.7c0.8-0.4,1.5-0.9,2.1-1.6
				c0.6-0.7,1-1.4,1.3-2.3c0.3-0.8,0.4-1.7,0.4-2.6c0-0.9-0.2-1.7-0.6-2.6c-0.4-0.8-0.9-1.6-1.7-2.3s-1.7-1.3-2.9-1.7l-3.2-1.2
				L185.8,323.8z"/>
		</g>
		<g class="st2">
			<path class="st3" d="M203.2,330.8l-1.7-0.4l3.5-16.6l4.9,1c0.8,0.2,1.5,0.4,2.2,0.7c0.7,0.3,1.2,0.7,1.6,1.1
				c0.4,0.5,0.7,1,0.9,1.6c0.2,0.6,0.2,1.3,0,2.1c-0.1,0.6-0.4,1.1-0.7,1.6c-0.3,0.5-0.7,0.8-1.2,1.1c-0.5,0.3-1,0.5-1.5,0.6
				c-0.6,0.1-1.2,0.1-1.8,0.1l3.2,8.9l-2.1-0.4l-3-8.7l-2.8-0.6L203.2,330.8z M205.1,321.6l2.9,0.6c1.4,0.3,2.5,0.3,3.3-0.1
				c0.8-0.3,1.4-1,1.6-2c0.1-0.5,0.1-1,0-1.4c-0.1-0.4-0.3-0.8-0.7-1.1c-0.3-0.3-0.7-0.6-1.2-0.8c-0.5-0.2-1.1-0.4-1.7-0.5l-3-0.6
				L205.1,321.6z"/>
		</g>
		<g class="st2">
			<path class="st3" d="M217.1,333.3l-1.7-0.2l2.1-16.9l1.7,0.2L217.1,333.3z"/>
		</g>
		<g class="st2">
			<path class="st3" d="M233.6,331.8L233.6,331.8l0.5-14.5l1.7,0.1l-0.5,17l-2.2-0.1l-9.4-14.9l0,0l-0.4,14.6l-1.7-0.1l0.5-17
				l2.2,0.1L233.6,331.8z"/>
		</g>
		<g class="st2">
			<path class="st3" d="M240.7,334.1l-1.9,0.2l5.3-17.7l1.7-0.2l9.2,16l-1.9,0.2l-2.4-4.2l-8.7,1L240.7,334.1z M242.4,327.8l7.4-0.9
				l-4.8-8.5L242.4,327.8z"/>
		</g>
		<g class="st2">
			<path class="st3" d="M277.8,323.2L277.8,323.2l-4.7-13.6l1.6-0.6l5.6,16l-2,0.7l-14.1-10.5l0,0l4.8,13.8l-1.6,0.6l-5.6-16l2-0.7
				L277.8,323.2z"/>
		</g>
		<g class="st2">
			<path class="st3" d="M285.3,322.8l-1.7,0.9l-1.3-18.4l1.5-0.8l14.3,11.7l-1.7,0.9l-3.7-3.1l-7.8,4L285.3,322.8z M284.8,316.3
				l6.6-3.4l-7.5-6.3L284.8,316.3z"/>
		</g>
		<g class="st2">
			<path class="st3" d="M309.3,305.1L309.3,305.1l-8.5-11.7l1.4-1l10,13.7l-1.7,1.3l-16.6-5.9l0,0l8.6,11.8l-1.4,1l-10-13.7l1.7-1.3
				L309.3,305.1z"/>
		</g>
		<g class="st2">
			<path class="st3" d="M324.9,290.6c0.1,0.5,0.1,1,0.1,1.6c0,0.6-0.1,1.1-0.3,1.7c-0.2,0.6-0.4,1.2-0.8,1.7
				c-0.3,0.6-0.8,1.1-1.3,1.7c-0.9,0.9-1.9,1.6-3,2c-1.1,0.4-2.2,0.7-3.3,0.6c-1.1,0-2.2-0.3-3.3-0.7s-2.1-1.2-3-2.1
				c-0.9-0.9-1.6-1.9-2-3c-0.4-1.1-0.7-2.2-0.6-3.3c0-1.1,0.2-2.2,0.7-3.3c0.5-1.1,1.1-2.1,2-2.9c0.4-0.4,0.9-0.8,1.4-1.1
				c0.5-0.3,1-0.6,1.6-0.8c0.5-0.2,1.1-0.3,1.6-0.4c0.5-0.1,1.1-0.1,1.6,0L316,284c-0.3-0.1-0.7-0.1-1.1-0.1c-0.4,0-0.8,0.1-1.2,0.2
				c-0.4,0.1-0.9,0.3-1.3,0.6c-0.4,0.2-0.8,0.5-1.2,0.9c-0.8,0.8-1.4,1.6-1.7,2.5c-0.3,0.9-0.5,1.8-0.5,2.7s0.3,1.8,0.7,2.7
				c0.4,0.9,0.9,1.6,1.6,2.3s1.5,1.3,2.3,1.7c0.9,0.4,1.7,0.6,2.6,0.7c0.9,0.1,1.8-0.1,2.7-0.4s1.7-0.9,2.5-1.6
				c0.7-0.7,1.2-1.5,1.6-2.4c0.3-0.9,0.4-1.9,0.2-2.9L324.9,290.6z"/>
		</g>
		<g class="st2">
			<path class="st3" d="M332.4,285.3l-1.1,1.4l-5.8-4.5l-11.5-1l1.3-1.7l9.6,1.1l-3.3-9.1l1.2-1.6l3.7,11L332.4,285.3z"/>
		</g>
		<g class="st2">
			<path class="st3" d="M150.1,131.1l-0.8,0.9l-7.6-6.9l-2.5,2.8l-0.8-0.7l5.9-6.5l0.8,0.7l-2.5,2.8L150.1,131.1z"/>
		</g>
		<g class="st2">
			<path class="st3" d="M147.5,124.2c-0.2-0.2-0.4-0.4-0.6-0.6l0.7-0.7c0.2,0.1,0.3,0.3,0.5,0.4c0.2,0.2,0.3,0.3,0.4,0.4l0,0
				c-0.2-0.5-0.2-0.9-0.1-1.4c0.1-0.5,0.4-0.9,0.7-1.3c0.1-0.1,0.2-0.2,0.3-0.3c0.1-0.1,0.2-0.1,0.3-0.2l0.6,0.8
				c-0.1,0-0.2,0.1-0.3,0.2c-0.1,0.1-0.2,0.2-0.3,0.3c-0.2,0.2-0.4,0.4-0.5,0.7c-0.1,0.3-0.2,0.5-0.1,0.8c0,0.3,0.1,0.6,0.3,1
				c0.2,0.3,0.4,0.7,0.8,1l2.7,2.7l-0.8,0.8l-4.1-4.1C147.9,124.6,147.7,124.4,147.5,124.2z"/>
		</g>
		<g class="st2">
			<path class="st3" d="M155.5,119.1c-0.4-0.5-0.9-0.7-1.3-0.7c-0.5,0-0.9,0.2-1.4,0.6c-0.3,0.3-0.6,0.6-0.8,1
				c-0.2,0.4-0.3,0.8-0.3,1.1l-0.9-0.1c0-0.4,0.2-0.9,0.4-1.4c0.2-0.5,0.6-0.9,1.1-1.4c0.3-0.3,0.6-0.5,1-0.6c0.3-0.2,0.7-0.2,1-0.2
				c0.3,0,0.7,0.1,1,0.2s0.7,0.4,1,0.7l2.2,2.4c0.2,0.2,0.4,0.4,0.6,0.6c0.2,0.2,0.4,0.4,0.6,0.5l-0.7,0.7c-0.1-0.1-0.3-0.2-0.5-0.4
				c-0.2-0.1-0.3-0.3-0.4-0.4l0,0c0.1,0.6,0,1.1-0.1,1.6c-0.2,0.5-0.5,0.9-0.9,1.3c-0.2,0.2-0.5,0.4-0.7,0.5
				c-0.3,0.1-0.6,0.2-0.9,0.3c-0.3,0-0.6,0-0.9-0.1c-0.3-0.1-0.6-0.3-0.9-0.6c-0.4-0.4-0.6-0.9-0.6-1.3c0-0.4,0.1-0.9,0.4-1.3
				c0.3-0.5,0.6-0.9,1-1.4c0.4-0.5,0.9-0.9,1.4-1.4L155.5,119.1z M156,120.1c-0.3,0.3-0.7,0.6-1,0.9c-0.3,0.3-0.6,0.7-0.8,1
				s-0.3,0.7-0.3,1c0,0.3,0.1,0.6,0.3,0.9c0.2,0.2,0.4,0.3,0.6,0.4c0.2,0.1,0.4,0.1,0.6,0.1c0.2,0,0.4-0.1,0.6-0.2
				c0.2-0.1,0.4-0.2,0.5-0.4c0.3-0.3,0.5-0.5,0.6-0.8c0.1-0.3,0.2-0.6,0.2-0.9c0-0.3-0.1-0.6-0.2-0.9c-0.1-0.3-0.3-0.6-0.5-0.8
				l-0.4-0.4L156,120.1z"/>
		</g>
		<g class="st2">
			<path class="st3" d="M164.9,116.1c0,0.6-0.1,1.1-0.3,1.6c-0.3,0.5-0.6,0.9-1,1.3c-0.5,0.4-0.9,0.6-1.4,0.7
				c-0.5,0.1-1,0.2-1.5,0.1c-0.5-0.1-0.9-0.2-1.4-0.5c-0.4-0.3-0.8-0.6-1.2-1.1c-0.3-0.4-0.6-0.9-0.7-1.4s-0.2-1-0.1-1.5
				c0-0.5,0.2-1,0.5-1.4c0.2-0.5,0.6-0.9,1.1-1.2c0.4-0.3,0.9-0.6,1.5-0.7c0.6-0.1,1.1-0.1,1.7,0.1l0,0l-3.6-4.7l0.9-0.7l7.4,9.5
				l-0.9,0.7L164.9,116.1L164.9,116.1z M159,117.5c0.3,0.3,0.5,0.6,0.9,0.8s0.7,0.4,1,0.4c0.4,0.1,0.7,0.1,1.1,0
				c0.4-0.1,0.7-0.3,1.1-0.6c0.3-0.3,0.6-0.6,0.8-0.9c0.2-0.3,0.3-0.7,0.3-1.1c0-0.4,0-0.7-0.1-1.1c-0.1-0.4-0.3-0.7-0.6-1.1
				c-0.3-0.3-0.6-0.6-0.9-0.8c-0.3-0.2-0.7-0.3-1.1-0.4c-0.4-0.1-0.7,0-1.1,0.1c-0.4,0.1-0.7,0.3-1.1,0.5c-0.4,0.3-0.6,0.6-0.8,0.9
				c-0.2,0.3-0.3,0.7-0.3,1.1c0,0.4,0,0.7,0.2,1.1S158.7,117.2,159,117.5z"/>
		</g>
		<g class="st2">
			<path class="st3" d="M163.3,106.2c0.1,0.2,0.2,0.4,0.1,0.6c0,0.2-0.2,0.4-0.3,0.5c-0.2,0.1-0.3,0.2-0.6,0.1
				c-0.2,0-0.4-0.1-0.5-0.3c-0.1-0.2-0.2-0.4-0.1-0.6c0-0.2,0.2-0.4,0.3-0.5c0.2-0.1,0.3-0.2,0.6-0.1
				C163,105.9,163.1,106,163.3,106.2z M169,114.8l-0.9,0.6l-4.3-6.2l0.9-0.6L169,114.8z"/>
		</g>
		<g class="st2">
			<path class="st3" d="M172,106c-0.3-0.1-0.7-0.2-1.1-0.2c-0.4,0-0.8,0.1-1.1,0.4c-0.4,0.2-0.7,0.5-0.9,0.8c-0.2,0.3-0.4,0.7-0.4,1
				c-0.1,0.4-0.1,0.7,0,1.1c0.1,0.4,0.2,0.8,0.5,1.1c0.2,0.4,0.5,0.7,0.8,0.9s0.6,0.4,1,0.5c0.4,0.1,0.7,0.1,1.1,0.1
				c0.4-0.1,0.8-0.2,1.1-0.4c0.4-0.3,0.7-0.5,0.9-0.9c0.2-0.3,0.3-0.7,0.3-1l1,0.1c-0.1,0.5-0.2,1-0.5,1.4c-0.3,0.4-0.7,0.8-1.2,1.2
				c-0.5,0.3-1,0.5-1.6,0.6c-0.5,0.1-1,0.1-1.5,0c-0.5-0.1-0.9-0.3-1.3-0.6c-0.4-0.3-0.8-0.7-1.1-1.2c-0.3-0.5-0.5-1-0.6-1.5
				c-0.1-0.5-0.1-1,0-1.5c0.1-0.5,0.3-0.9,0.6-1.4c0.3-0.4,0.7-0.8,1.2-1.1c0.4-0.3,0.9-0.4,1.5-0.5c0.6-0.1,1.1,0,1.6,0.2L172,106z
				"/>
		</g>
		<g class="st2">
			<path class="st3" d="M172.5,100.4c0.1,0.2,0.1,0.4,0.1,0.6c-0.1,0.2-0.2,0.4-0.4,0.4s-0.4,0.1-0.6,0.1c-0.2,0-0.4-0.2-0.5-0.4
				c-0.1-0.2-0.1-0.4-0.1-0.6s0.2-0.4,0.4-0.4c0.2-0.1,0.4-0.1,0.6-0.1C172.2,100.1,172.4,100.2,172.5,100.4z M177.4,109.6l-0.9,0.5
				l-3.7-6.5l0.9-0.5L177.4,109.6z"/>
		</g>
		<g class="st2">
			<path class="st3" d="M184,102c0.3,0.5,0.4,1,0.4,1.5c0,0.5,0,1-0.2,1.5c-0.2,0.5-0.4,0.9-0.8,1.3c-0.3,0.4-0.8,0.7-1.3,1
				c-0.5,0.3-1,0.4-1.6,0.4c-0.5,0-1,0-1.5-0.2c-0.5-0.2-0.9-0.4-1.3-0.7c-0.4-0.3-0.7-0.8-1-1.3c-0.3-0.5-0.4-1-0.4-1.5
				c0-0.5,0-1,0.2-1.5c0.2-0.5,0.4-0.9,0.8-1.3c0.3-0.4,0.8-0.7,1.3-1c0.5-0.3,1-0.4,1.6-0.5c0.5,0,1,0,1.5,0.2
				c0.5,0.2,0.9,0.4,1.3,0.7C183.4,101,183.7,101.5,184,102z M178.3,98.9l-0.8,0.4l0.4-2.8l1.3-0.6L178.3,98.9z M183,102.5
				c-0.2-0.4-0.4-0.7-0.7-1c-0.3-0.3-0.6-0.5-0.9-0.6c-0.3-0.1-0.7-0.2-1.1-0.2c-0.4,0-0.8,0.1-1.2,0.3c-0.4,0.2-0.7,0.4-0.9,0.7
				c-0.2,0.3-0.4,0.6-0.5,1c-0.1,0.4-0.1,0.7-0.1,1.1c0,0.4,0.2,0.8,0.3,1.1s0.4,0.7,0.7,1c0.3,0.3,0.6,0.5,0.9,0.6
				c0.3,0.1,0.7,0.2,1.1,0.2c0.4,0,0.8-0.1,1.2-0.3c0.4-0.2,0.7-0.4,1-0.7c0.2-0.3,0.4-0.6,0.5-1c0.1-0.4,0.1-0.7,0.1-1.1
				C183.3,103.2,183.2,102.9,183,102.5z"/>
		</g>
		<g class="st2">
			<path class="st3" d="M184.7,97.6c0.1,0.2,0.2,0.4,0.3,0.6s0.2,0.4,0.2,0.6l0,0c0-0.5,0.2-0.9,0.6-1.4c0.3-0.4,0.8-0.8,1.3-1
				c0.9-0.4,1.6-0.4,2.3,0c0.7,0.3,1.2,0.9,1.5,1.8l1.7,4.3l-1,0.4L190,99c-0.1-0.4-0.3-0.7-0.5-1s-0.4-0.5-0.6-0.6
				c-0.2-0.2-0.5-0.2-0.8-0.3c-0.3,0-0.6,0-1,0.2c-0.3,0.1-0.5,0.3-0.7,0.5c-0.2,0.2-0.4,0.5-0.5,0.8c-0.1,0.3-0.1,0.6-0.1,1
				c0,0.4,0.1,0.8,0.3,1.3l1.5,3.6l-1,0.4l-2.2-5.4c-0.1-0.2-0.2-0.4-0.3-0.7c-0.1-0.3-0.3-0.6-0.4-0.8L184.7,97.6z"/>
		</g>
		<g class="st2">
			<path class="st3" d="M202.5,97.8c-0.2,0.6-0.5,1-0.9,1.4c-0.4,0.4-0.9,0.7-1.4,0.8c-0.6,0.2-1.1,0.2-1.6,0.2
				c-0.5-0.1-1-0.2-1.4-0.4c-0.4-0.2-0.8-0.6-1.1-1c-0.3-0.4-0.6-0.9-0.7-1.4c-0.2-0.5-0.2-1.1-0.2-1.6c0-0.5,0.2-1,0.4-1.4
				c0.2-0.4,0.5-0.8,0.9-1.1c0.4-0.3,0.9-0.6,1.4-0.7c0.5-0.2,1.1-0.2,1.6-0.1c0.6,0.1,1.1,0.3,1.5,0.7l0,0l-1.7-5.7l1-0.3l3.5,11.6
				l-1,0.3L202.5,97.8L202.5,97.8z M196.4,97c0.1,0.4,0.3,0.8,0.5,1.1c0.2,0.3,0.5,0.6,0.8,0.8c0.3,0.2,0.7,0.3,1,0.4
				c0.4,0,0.8,0,1.2-0.1c0.4-0.1,0.7-0.3,1-0.6c0.3-0.2,0.5-0.5,0.7-0.9c0.2-0.3,0.3-0.7,0.3-1.1c0-0.4,0-0.8-0.1-1.2
				c-0.1-0.4-0.3-0.8-0.5-1.1c-0.2-0.3-0.5-0.6-0.9-0.7c-0.3-0.2-0.7-0.3-1.1-0.4c-0.4,0-0.8,0-1.2,0.1c-0.4,0.1-0.8,0.3-1.1,0.6
				c-0.3,0.3-0.5,0.5-0.7,0.9s-0.2,0.7-0.3,1.1C196.3,96.3,196.3,96.6,196.4,97z"/>
		</g>
		<g class="st2">
			<path class="st3" d="M211.4,93.1c0,0.1,0,0.2,0.1,0.2s0,0.2,0,0.3l-6.1,1.3c0.1,0.4,0.2,0.7,0.4,1c0.2,0.3,0.5,0.5,0.7,0.7
				c0.3,0.2,0.6,0.3,1,0.4c0.4,0.1,0.7,0.1,1.1,0c0.6-0.1,1-0.4,1.3-0.7c0.3-0.3,0.6-0.7,0.7-1.1l0.9,0.5c-0.3,0.6-0.7,1.1-1.2,1.5
				s-1,0.6-1.6,0.7c-0.5,0.1-1.1,0.1-1.6,0c-0.5-0.1-1-0.3-1.4-0.5c-0.4-0.3-0.8-0.6-1.1-1c-0.3-0.4-0.5-0.9-0.6-1.5
				c-0.1-0.6-0.1-1.1-0.1-1.6c0.1-0.5,0.3-1,0.5-1.4c0.3-0.4,0.6-0.8,1-1.1c0.4-0.3,0.9-0.5,1.4-0.6c0.6-0.1,1.1-0.1,1.6,0
				c0.5,0.1,0.9,0.3,1.3,0.5c0.4,0.3,0.7,0.6,0.9,1C211.1,92.1,211.3,92.6,211.4,93.1z M210.2,93c-0.2-0.7-0.5-1.2-1-1.6
				c-0.5-0.4-1.1-0.5-1.9-0.3c-0.4,0.1-0.7,0.2-0.9,0.4c-0.3,0.2-0.5,0.4-0.7,0.7c-0.2,0.3-0.3,0.6-0.4,0.9c-0.1,0.3-0.1,0.6,0,0.9
				L210.2,93z"/>
		</g>
		<g class="st2">
			<path class="st3" d="M216.5,90.5c-0.2-0.3-0.5-0.5-0.8-0.6c-0.4-0.1-0.7-0.2-1.1-0.1c-0.2,0-0.4,0.1-0.6,0.2
				c-0.2,0.1-0.3,0.2-0.5,0.3c-0.1,0.1-0.2,0.3-0.3,0.4c-0.1,0.2-0.1,0.3-0.1,0.5c0.1,0.3,0.2,0.6,0.5,0.7c0.3,0.1,0.8,0.2,1.4,0.3
				c0.9,0,1.6,0.2,2,0.5c0.5,0.3,0.7,0.7,0.8,1.3c0.1,0.4,0,0.8-0.1,1.1c-0.1,0.3-0.3,0.6-0.5,0.8c-0.2,0.2-0.5,0.4-0.8,0.5
				c-0.3,0.1-0.6,0.2-1,0.3c-0.6,0.1-1.1,0.1-1.7-0.1s-1-0.4-1.5-0.9l0.8-0.8c0.2,0.3,0.6,0.5,1,0.7c0.4,0.2,0.8,0.2,1.3,0.1
				c0.2,0,0.4-0.1,0.7-0.2c0.2-0.1,0.4-0.2,0.5-0.3s0.2-0.3,0.3-0.5c0.1-0.2,0.1-0.4,0-0.6c-0.1-0.4-0.3-0.7-0.7-0.8
				c-0.4-0.1-1-0.2-1.7-0.3c-0.2,0-0.5,0-0.7-0.1c-0.3,0-0.5-0.1-0.7-0.2c-0.2-0.1-0.4-0.3-0.6-0.5c-0.2-0.2-0.3-0.5-0.3-0.8
				c-0.1-0.4,0-0.7,0.1-1s0.3-0.5,0.5-0.8s0.5-0.4,0.8-0.5c0.3-0.1,0.6-0.2,1-0.3c0.5-0.1,1,0,1.5,0.1s0.9,0.4,1.2,0.8L216.5,90.5z"
				/>
		</g>
		<g class="st2">
			<path class="st3" d="M225.3,94.1c-0.3,0.5-0.7,0.9-1.2,1.2c-0.5,0.3-1,0.4-1.5,0.5c-0.6,0-1.1,0-1.6-0.2
				c-0.5-0.2-0.9-0.4-1.3-0.7c-0.4-0.3-0.7-0.7-0.9-1.2c-0.2-0.5-0.4-1-0.4-1.5c0-0.6,0-1.1,0.2-1.6c0.1-0.5,0.4-0.9,0.7-1.3
				c0.3-0.4,0.7-0.7,1.1-0.9c0.5-0.2,1-0.4,1.6-0.4c0.5,0,1.1,0,1.6,0.2c0.5,0.2,1,0.5,1.3,1l0,0l-0.5-5.9l1.1-0.1l1,12l-1.1,0.1
				L225.3,94.1L225.3,94.1z M219.6,92.1c0,0.4,0.1,0.8,0.3,1.2c0.2,0.4,0.4,0.7,0.6,0.9c0.3,0.3,0.6,0.4,0.9,0.6
				c0.4,0.1,0.8,0.2,1.2,0.1c0.4,0,0.8-0.1,1.1-0.3s0.6-0.4,0.9-0.7s0.4-0.6,0.5-1c0.1-0.4,0.2-0.8,0.1-1.2c0-0.4-0.1-0.8-0.3-1.2
				c-0.2-0.4-0.4-0.7-0.7-0.9c-0.3-0.2-0.6-0.4-1-0.6c-0.4-0.1-0.7-0.2-1.2-0.1c-0.4,0-0.8,0.1-1.2,0.3c-0.3,0.2-0.6,0.4-0.8,0.7
				c-0.2,0.3-0.4,0.6-0.5,1C219.6,91.3,219.6,91.7,219.6,92.1z"/>
		</g>
		<g class="st2">
			<path class="st3" d="M234.9,91.2c0,0.1,0,0.2,0,0.2s0,0.2,0,0.3l-6.2,0.1c0,0.4,0.1,0.7,0.2,1.1c0.1,0.3,0.3,0.6,0.6,0.9
				c0.2,0.2,0.5,0.4,0.9,0.6c0.3,0.1,0.7,0.2,1.1,0.2c0.6,0,1.1-0.1,1.5-0.4c0.4-0.3,0.7-0.6,0.9-0.9l0.8,0.6
				c-0.4,0.6-0.9,1-1.5,1.2c-0.5,0.3-1.1,0.4-1.7,0.4c-0.6,0-1.1-0.1-1.5-0.3s-0.9-0.5-1.2-0.8s-0.6-0.8-0.8-1.2
				c-0.2-0.5-0.3-1-0.3-1.6c0-0.6,0.1-1.1,0.3-1.6s0.4-0.9,0.8-1.3c0.3-0.4,0.7-0.6,1.2-0.8c0.5-0.2,1-0.3,1.5-0.3
				c0.6,0,1.1,0.1,1.6,0.3c0.5,0.2,0.8,0.5,1.1,0.8c0.3,0.3,0.5,0.7,0.7,1.2C234.8,90.2,234.9,90.7,234.9,91.2z M233.8,90.8
				c0-0.7-0.3-1.3-0.7-1.7c-0.4-0.5-1-0.7-1.8-0.7c-0.4,0-0.7,0.1-1,0.2c-0.3,0.1-0.6,0.3-0.8,0.6c-0.2,0.2-0.4,0.5-0.6,0.8
				c-0.1,0.3-0.2,0.6-0.2,0.9L233.8,90.8z"/>
		</g>
		<g class="st2">
			<path class="st3" d="M243.5,95.7l-1.1-0.1l0.9-9.9l-2.2,1.6l-0.6-0.9l3.1-2.1l1,0.1L243.5,95.7z"/>
		</g>
		<g class="st2">
			<path class="st3" d="M252.6,91.9L252.6,91.9c-0.2,0.1-0.5,0.1-0.8,0.2c-0.3,0-0.6,0-0.9,0c-0.5-0.1-0.9-0.2-1.3-0.5
				c-0.4-0.2-0.7-0.5-1-0.9c-0.3-0.3-0.4-0.8-0.5-1.2c-0.1-0.5-0.1-0.9,0-1.4c0.1-0.5,0.2-1,0.5-1.4c0.2-0.4,0.6-0.7,0.9-1
				c0.4-0.3,0.8-0.4,1.3-0.5c0.5-0.1,1-0.1,1.5,0c0.5,0.1,1,0.2,1.4,0.5c0.4,0.2,0.8,0.5,1,0.9c0.3,0.4,0.5,0.8,0.6,1.2
				c0.1,0.5,0.1,1,0,1.5c-0.1,0.6-0.3,1.1-0.6,1.6c-0.3,0.5-0.6,0.9-0.9,1.3l-3.8,4.4l-1.3-0.2L252.6,91.9z M254.1,89
				c0.1-0.4,0-0.7,0-1c-0.1-0.3-0.2-0.6-0.4-0.9c-0.2-0.3-0.4-0.5-0.7-0.7c-0.3-0.2-0.6-0.3-1-0.4c-0.4-0.1-0.7,0-1,0
				c-0.3,0.1-0.6,0.2-0.9,0.4c-0.3,0.2-0.5,0.4-0.6,0.7c-0.2,0.3-0.3,0.6-0.3,1c-0.1,0.4-0.1,0.7,0,1c0.1,0.3,0.2,0.6,0.4,0.9
				c0.2,0.3,0.4,0.5,0.7,0.7c0.3,0.2,0.6,0.3,1,0.4s0.7,0.1,1.1,0s0.6-0.2,0.9-0.4s0.5-0.4,0.6-0.7C254,89.7,254.1,89.4,254.1,89z"
				/>
		</g>
		<g class="st2">
			<path class="st3" d="M263.8,89L257,98l-1.3-0.3l6.9-8.9l-5.4-1.3l0.2-1l6.5,1.6L263.8,89z"/>
		</g>
		<g class="st2">
			<path class="st3" d="M269.2,101.4l-6.9-2.2l0.4-1.1l5.9-3.1c0.2-0.1,0.4-0.2,0.6-0.4c0.2-0.1,0.4-0.3,0.6-0.5
				c0.2-0.2,0.4-0.4,0.5-0.6c0.1-0.2,0.3-0.4,0.3-0.7c0.1-0.3,0.1-0.6,0.1-0.9s-0.1-0.6-0.3-0.8c-0.1-0.2-0.3-0.5-0.6-0.6
				c-0.2-0.2-0.5-0.3-0.8-0.4c-0.6-0.2-1.1-0.2-1.6,0.1s-0.9,0.6-1.2,1.1l-1-0.6c0.2-0.4,0.4-0.7,0.7-0.9c0.3-0.3,0.6-0.5,1-0.6
				c0.4-0.1,0.8-0.2,1.2-0.2c0.4,0,0.8,0,1.3,0.2c0.4,0.1,0.8,0.3,1.2,0.6c0.4,0.3,0.6,0.5,0.8,0.9c0.2,0.3,0.3,0.7,0.4,1.2
				c0.1,0.4,0,0.9-0.1,1.4c-0.1,0.3-0.3,0.7-0.5,0.9c-0.2,0.3-0.4,0.5-0.7,0.7c-0.2,0.2-0.5,0.4-0.8,0.6s-0.6,0.3-0.9,0.5l-5.1,2.6
				l5.7,1.8L269.2,101.4z"/>
		</g>
		<g>
			<path class="st4" d="M232.4,301.6c-25.3,0-50.4-10-69-29.9c-4.5-4.8-8.4-10-11.8-15.7c-0.7-1.2-0.3-2.7,0.8-3.4
				c1.2-0.7,2.7-0.3,3.4,0.8c3.2,5.3,7,10.3,11.2,14.8c33.6,36,90.3,38,126.3,4.3c1-0.9,2.6-0.9,3.5,0.1c0.9,1,0.9,2.6-0.1,3.5
				C278.6,293.2,255.5,301.6,232.4,301.6z"/>
		</g>
		<g>
			<path class="st4" d="M146.6,177c-0.3,0-0.6-0.1-0.9-0.2c-1.3-0.5-1.9-1.9-1.4-3.2c18.6-48.6,73.2-72.9,121.8-54.3
				c9,3.4,17.3,8.2,24.9,14.2c1.1,0.9,1.3,2.4,0.4,3.5c-0.9,1.1-2.4,1.3-3.5,0.4c-7.1-5.7-15-10.2-23.5-13.4
				c-46-17.6-97.7,5.5-115.3,51.4C148.6,176.4,147.6,177,146.6,177z"/>
		</g>
		<g>
			<path class="st4" d="M232.5,355.9c-16.2,0-32.4-2.7-48.1-8c-38.1-13-69.7-41.4-86.6-77.9c-0.6-1.3,0-2.7,1.2-3.3s2.7,0,3.3,1.2
				c16.4,35.2,46.9,62.7,83.7,75.2c36.3,12.4,75.2,9.9,109.6-7c34.4-16.9,60.2-46.2,72.6-82.4c0.4-1.3,1.9-2,3.2-1.6
				c1.3,0.4,2,1.9,1.6,3.2c-12.8,37.5-39.5,67.8-75.1,85.3C277.1,350.8,254.9,355.9,232.5,355.9z"/>
		</g>
		<g>
			<path class="st4" d="M95.1,160.3c-0.3,0-0.6,0-0.9-0.1c-1.3-0.5-2-1.9-1.5-3.2c13.5-37.3,40.7-67.1,76.6-83.9
				s76.2-18.7,113.5-5.2c27.4,9.9,51.1,27.5,68.5,50.9c0.8,1.1,0.6,2.7-0.5,3.5c-1.1,0.8-2.7,0.6-3.5-0.5
				c-16.8-22.6-39.7-39.6-66.2-49.2c-74.4-26.9-156.8,11.7-183.8,86.1C97.1,159.6,96.1,160.3,95.1,160.3z"/>
		</g>
	</g>
	<g>
		<path class="st4" d="M406.9,268.5L406.9,268.5c1.3-3.8,4.1-6.4,7.3-7.3l33.4-9l0.1-1.7c0.1-1.6-0.1-3.2-0.5-4.8l-5.9-22.2
			c-1.2-4.2-0.9-8.8,1-12.8c8-16.1,16.1-40.6,9.2-66.3c-6.9-25.7-26.2-42.9-41.1-52.8c-3.6-2.6-6.1-6.3-7.2-10.6l-5.9-22.2
			c-0.4-1.6-1.1-3.1-2-4.4l-1-1.4l-33.4,9c-3.3,0.9-6.9-0.1-10-2.7C304.5,20.5,242.4,6.5,184.8,22S80.4,80.6,59.7,137.4
			c-1.3,3.8-4,6.4-7.3,7.3l-33.4,9l-0.1,1.7c-0.1,1.6,0.1,3.2,0.5,4.8l5.9,22.2c1.2,4.2,0.9,8.7-0.9,12.7
			c-8,16.1-16.1,40.6-9.2,66.3c6.9,25.7,26.1,42.9,41.1,52.8c3.6,2.6,6.1,6.3,7.2,10.6l5.9,22.2c0.4,1.6,1.1,3,2,4.4l1,1.4l33.4-9
			c3.3-0.9,6.9,0.1,10,2.7c46.4,38.9,108.4,52.9,166.1,37.4C339.3,368.5,386.2,325.4,406.9,268.5z M280.3,378.5
			c-56.5,15.1-117.2,1.5-162.5-36.5c-4.2-3.5-9.1-4.8-13.5-3.6l-30.5,8.2c-0.1-0.2-0.2-0.5-0.3-0.7l-5.9-22.2
			c-1.4-5.8-4.9-10.8-9.7-14.3c-14.1-9.4-32.2-25.5-38.6-49.1s1.3-46.7,8.9-61.8c2.5-5.4,2.9-11.5,1.3-17.2l-5.9-22.2
			c0-0.2-0.1-0.5-0.1-0.7l30.5-8.2c4.5-1.2,8.1-4.8,9.9-9.9C84,84.7,129.8,42.5,186.2,27.4s117.2-1.5,162.5,36.5
			c4.2,3.5,9.1,4.8,13.5,3.6l30.5-8.2c0.1,0.2,0.2,0.4,0.3,0.7l5.9,22.2c1.4,5.8,4.9,10.8,9.7,14.3c14.1,9.4,32.2,25.5,38.6,49.1
			s-1.3,46.7-8.9,61.8c-2.5,5.4-2.9,11.5-1.3,17.2l6,22.2c0,0.2,0.1,0.5,0.1,0.7l-30.5,8.2c-4.5,1.2-8.1,4.8-9.9,9.9l0,0
			C382.6,321.2,336.8,363.4,280.3,378.5z"/>
	</g>
	<g id="Tamales">
		<path class="st3" d="M104.7,179.7c4.7-1.2,8-3.4,9.8-6.5c1.8-3.1,2.1-7.2,0.9-12.3c-3.9,2.8-8.2,4.9-12.9,6.1
			c-4.5,1.1-9.1,1.9-13.7,2.3c-5.7,0.6-11.4,1.6-17,3c-9.2,2.5-16.4,5.9-21.6,10.3c-5.2,4.4-8.6,9.3-10.1,14.6
			c-1.5,5.3-1.5,10.9,0,16.2c1.1,4.1,2.9,6.7,5.4,7.9c2.5,1.2,5.9,1.2,10.1,0.1c-0.4-0.6-0.8-1.2-1.3-1.7c-0.9-1-1.7-2.9-2.4-5.8
			c-2.4-8.8-2.1-15.5,0.9-20c2.9-4.5,7.9-7.7,14.8-9.6l1.4-0.4L73,266l16.9-4.5l-4-79.5c4.8-0.3,8.6-0.6,11.2-0.9
			C99.6,180.8,102.2,180.3,104.7,179.7z"/>
		<path class="st3" d="M238,222.5c4.3-1.3,8-3.9,10.6-7.5c0.8-1.1,1.5-2.3,2.2-3.8c0.9,0.9,1.8,1.6,2.8,2.2
			c3.7,2.2,8.2,2.8,12.3,1.5c3.6-0.9,6.7-2.8,9.1-5.6c2.4-2.9,4.2-6.3,5.5-9.8c1.4,3.4,3.3,5.7,5.8,7c2.7,1.3,5.8,1.5,8.6,0.6
			c4.3-1.2,8.1-3.8,11.6-7.9c0.8-1,1.6-2.2,2.3-3.5c1,1.3,2.1,2.4,3.3,3.1c3,1.8,6.6,2.2,10,1.2c4.4-1.2,8.5-3.9,12.3-8.1
			c1.2-1.3,2.2-2.9,3-4.7c1.1,1.2,2.2,2.1,3.6,2.8c4,2.1,8.9,2.4,14.7,0.9c8.4-2.3,15.1-7.4,20.1-15.5c0.4,0.5,0.8,1,1.2,1.5
			c2,2,4.5,3.4,7.2,4.1c3.3,0.8,6.8,0.6,10-0.3c3.7-1,7.2-2.7,10.3-4.9c3.2-2.3,5.7-5.4,7.2-8.9c1.6-3.7,1.8-7.9,0.5-12.7
			c-0.6-2.1-1.7-5.5-3.3-10c-4-11.4-7.6-22-10.7-31.9l-16.7,7c-0.3,7-0.8,13.6-1.6,19.8c-0.8,6.3-2,12.5-3.5,18.7
			c-1.6,1.4-2.7,3.3-3.3,5.3c-0.7,2.3-0.7,4.7-0.1,7c-0.8,1.1-1.7,2.2-2.6,3.3c-2.7,2.9-6.2,4.9-10,5.8c-3,0.8-5.3,0.7-7-0.3
			c-1.7-1-3.1-3.4-4.1-7.3c-0.2-0.8-0.6-2.4-1-4.7c4.5-1.5,8.7-4,12.2-7.3c3.4-3.2,6-7.1,7.6-11.5c1.5-4.2,1.7-8.8,0.5-13.1
			c-2-7.5-7.3-10.1-15.9-7.8c-7.3,2-12.7,5.9-16.2,11.9c-3.5,6-5.5,12.7-5.8,19.6c-0.4,6.3,0.1,12.5,1.6,18.6c0.4,1.5,0.9,3,1.5,4.3
			c0,0,0,0.1-0.1,0.1c-1.2,2.2-3.2,3.8-5.6,4.5c-1.3,0.5-2.7,0.5-3.9,0c-1.1-0.7-1.8-1.8-2-3c-0.3-1.3-0.5-2.6-0.5-3.9l-3.5-66.8
			l-16.7,7l3.2,62c0.1,2.6,0.5,5.3,1.1,7.9c0,0.1,0.1,0.3,0.1,0.4c-0.8,2.2-2.6,3.8-4.8,4.5c-3.2,0.9-5.3-0.4-6.1-3.8
			c-0.3-1.3-0.5-2.6-0.5-3.9l-2.2-42l-16.9,4.5l0.4,6.5l-0.2-0.8c-0.4-1.8-1.8-3.2-3.5-3.7c-1.8-0.7-4.4-0.6-7.6,0.3
			c-6.1,1.6-11.4,5.5-14.6,11c-3.4,5.8-5.5,12.2-6,18.9c-0.6,6.4-0.2,12.9,1.4,19.1c0.5,1.8,1,3.4,1.7,4.9c0,0,0,0,0,0
			c-0.9,2-2.8,3.5-4.9,4c-1.3,0.5-2.8,0.4-4-0.3c-1-0.8-1.8-2-2-3.3c-0.4-1.8-0.6-3.7-0.7-5.6c-0.1-2.4-0.2-4.9-0.2-7.5
			c0-4.3-0.2-7.8-0.4-10.7c-0.1-2.6-0.5-5.2-1.2-7.8c-1.3-4.5-3.3-7.5-6.2-9.1c-2.9-1.6-6.4-1.8-10.4-0.7
			c-6.5,1.7-11.1,6.5-13.6,14.3c-3-6.4-7.9-8.7-14.7-6.8c-5.5,1.5-10.1,5.3-12.5,10.5l-0.4-6.4l-16.9,4.5l2.6,49.5
			c-0.9,1.5-2.4,2.6-4.1,3c-3.2,0.9-5.2-0.4-6.1-3.7c-0.3-1.3-0.5-2.6-0.5-3.9l-2.3-42l-16.9,4.5l0.4,6.5l-0.2-0.8
			c-0.4-1.8-1.8-3.2-3.5-3.7c-1.8-0.7-4.4-0.6-7.6,0.3c-6.1,1.6-11.4,5.5-14.6,11c-3.4,5.8-5.4,12.2-5.9,18.9
			c-0.7,6.4-0.2,12.9,1.4,19.1c1.7,6.5,4.5,10.8,8.3,13.1c3.7,2.3,8.2,2.8,12.4,1.6c3.6-0.9,6.7-2.8,9.1-5.6
			c2.4-2.9,4.2-6.3,5.5-9.8c1.3,3.4,3.2,5.8,5.7,7.1c2.7,1.3,5.8,1.5,8.6,0.6c4-1.1,7.6-3.5,10.8-7.1l0.2,3.4l16.9-4.5l-2.1-39.7
			c0-3,0.5-6.1,1.7-8.9c0.8-2.2,2.6-3.9,4.9-4.5c2.3-0.6,4,0.8,4.9,4.2c0.3,1,0.4,2,0.4,3l2.3,42.7l16.8-4.6l-2.1-39.8
			c0-3,0.5-6,1.7-8.8c0.7-2.1,2.5-3.8,4.6-4.4c2.8-0.7,4.7,0.9,5.8,4.8c0.5,2.2,0.8,4.4,0.9,6.7c0.2,2.8,0.3,5.6,0.4,8.5
			c0,0.6,0,2,0.1,4c0.1,2.1,0.2,4.2,0.4,6.4c0.1,1.9,0.4,3.8,0.9,5.7c0.8,3.5,2.9,6.5,5.9,8.5C229.4,223.5,233.2,223.8,238,222.5z
			 M385.5,131.7c1.1,3,3.2,8.8,6.3,17.5c1.3,3.2,2.4,6.4,3.3,9.6c1,3.8,0.8,6.9-0.7,9.1l0,0c-1.6,2.3-3.9,3.8-6.6,4.4
			c-2.5,0.7-4.5,0.5-6-0.5c-1.1-0.7-1.9-1.9-2.6-3.5c0.2-0.5,0.4-0.9,0.6-1.4c0.6,0.2,1.4,0.1,2.3-0.1c1.4-0.4,2.7-1.4,3.3-2.7
			c0.7-1.4,0.8-2.9,0.4-4.4c-0.5-1.8-2-3.1-3.8-3.3C383.9,148.2,385.1,140,385.5,131.7z M349,142.7c1.4-5.6,3.5-8.8,6.3-9.6
			c1.9-0.5,3.4,0.8,4.2,4c0.9,3.2,0.9,6.6,0,9.8c-0.8,3.2-2.3,6.3-4.4,8.8l0,0c-1.9,2.4-4.5,4.3-7.5,5.2
			C347.2,154.8,347.6,148.7,349,142.7z M260.7,179.9c-0.1-5,0.7-10,2.3-14.7c1.5-4.3,3.9-6.8,7-7.7c1.3-0.5,2.8-0.3,4,0.5
			c0.9,0.6,1.6,1.6,2,2.7l1.5,28c0.2,3-0.4,6-1.9,8.6l0,0c-1,2-2.8,3.5-5,4.3c-1.5,0.4-3.2,0.3-4.6-0.5c-1.4-0.8-2.7-3.1-3.7-7
			C261.1,189.4,260.6,184.7,260.7,179.9z M131.8,235.8L131.8,235.8c-1.4,2.4-3.1,3.8-5.1,4.3c-1.5,0.4-3.2,0.3-4.6-0.5
			c-1.4-0.8-2.6-3.1-3.7-7c-1.1-4.6-1.6-9.3-1.5-14.1c0-5,0.7-10,2.3-14.7c1.5-4.3,3.9-6.8,7-7.7c1.3-0.5,2.8-0.3,4,0.5
			c0.9,0.6,1.6,1.6,2,2.7l1.5,28C134,230.2,133.3,233.2,131.8,235.8z"/>
		<path class="st3" d="M293.3,260.7c-0.6-0.4-1-1-1.2-1.8c-0.2-0.7-0.3-1.5-0.3-2.2l-1.3-24.4l-9.8,2.6l0.2,3.8l-0.1-0.5
			c-0.2-1-1-1.9-2-2.2c-1.4-0.4-3-0.3-4.4,0.2c-3.6,0.9-6.6,3.2-8.4,6.4c-2,3.3-3.2,7.1-3.5,11c-0.4,3.7-0.1,7.5,0.8,11.1
			c0.1,0.4,0.2,0.9,0.4,1.3c-0.7,1.1-1.6,2-2.5,2.9c-2,1.8-4.3,3.1-6.9,3.7c-3.1,0.8-5.4,0.5-7.1-1c-1.7-1.5-2.9-3.9-3.9-7.4
			c-1.3-4.9-1.9-9.9-1.8-14.9c-0.1-4.7,0.6-9.3,1.9-13.8c1.3-3.9,3.1-6.1,5.5-6.8c1.1-0.4,2.4-0.3,3.5,0.3c0.9,0.7,1.5,1.6,1.8,2.7
			c0.4,1.3,0.4,2.7,0.1,4c-0.2,1.1-0.7,2.2-1.5,3c1.2,0.9,2.9,1.2,4.3,0.7c1.4-0.3,2.6-1.3,3.1-2.6c0.5-1.6,0.4-3.3-0.1-4.9
			c-0.8-3.1-2.5-5.1-4.9-6c-2.9-0.9-5.9-1-8.8,0c-5.2,1.2-9.6,4.7-12,9.5c-2.5,5-3.9,10.5-4,16.1c-0.2,5.4,0.4,10.7,1.7,15.9
			c1.6,6,3.9,9.9,7,11.9c3.1,1.9,7.2,2.2,12.3,0.9c5.3-1.5,9.8-4.8,12.9-9.3c0.4-0.5,0.7-1.1,1-1.7c0.8,1.3,1.7,2.2,2.9,2.9
			c2.1,1.3,4.7,1.7,7.2,1c4-1.1,6.8-4.1,8.4-9c0.6,1.7,1.8,3.1,3.4,4.1c1.5,0.8,3.3,1,5,0.4c1.5-0.3,2.8-1.3,3.5-2.6
			c0.8-1.9,1.3-4,1.4-6.1c-0.4,0.3-0.9,0.6-1.4,0.7C294.9,261,294.1,261,293.3,260.7z M280.9,262.9c-0.6,1.2-1.7,2.1-2.9,2.5
			c-0.9,0.3-1.8,0.2-2.7-0.3c-0.8-0.5-1.5-1.8-2.2-4.1c-0.6-2.7-0.9-5.4-0.9-8.2c0-2.9,0.4-5.8,1.4-8.5c0.9-2.5,2.2-3.9,4-4.5
			c0.8-0.3,1.6-0.2,2.3,0.3c0.5,0.4,1,0.9,1.1,1.5L282,258C282.1,259.7,281.8,261.4,280.9,262.9L280.9,262.9z"/>
		<path class="st3" d="M322.4,249.9c-0.7-0.5-1.7-0.6-2.5-0.3c-1,0.2-1.9,0.8-2.5,1.7c-0.5,0.7-0.7,1.5-0.5,2.3
			c0.1,0.4,0.3,0.7,0.6,0.9c0.3,0.2,0.7,0.3,1.1,0.2c0.1,0.9-0.9,1.7-2.8,2.2c-1.2,0.3-2.5,0.5-3.7,0.7c-0.7,0.1-1.3,0.2-1.5,0.3
			l8.9-33.1l-17.4,4.7c-1.5,0.4-2.8,1.1-3.8,2.2c-1,1-1.7,2.2-2,3.5c-0.4,1.1-0.4,2.2-0.2,3.3c0.2,0.8,0.7,1.6,1.5,1.9
			c0.7,0.4,1.6,0.4,2.4,0.2c0.9-0.2,1.8-0.8,2.3-1.6c0.6-0.9,0.7-2,0.4-3c-0.2-0.7-0.4-1-0.7-1.1s-0.5-0.1-0.5-0.2
			c-0.1-0.5,0.1-0.8,0.7-1.1c0.9-0.4,1.8-0.7,2.8-1l3.8-1.1l-9.1,34.9l18-4.8c1.5-0.4,2.9-1.2,4-2.3c1-1,1.8-2.2,2.2-3.6
			c0.4-1.2,0.4-2.4,0.1-3.6C323.6,251.2,323.1,250.4,322.4,249.9z"/>
		<path class="st3" d="M428.6,225.2c-0.7,0.3-1.6,0.3-2.3,0c-0.6-0.4-1-1-1.2-1.8c-0.2-0.7-0.3-1.5-0.3-2.2l-1.3-24.4l-9.8,2.6
			l0.2,3.8l-0.1-0.5c-0.2-1-1-1.9-2-2.2c-1.4-0.4-3-0.3-4.4,0.2c-3.6,0.9-6.6,3.2-8.4,6.4c-2,3.3-3.2,7.1-3.5,11
			c-0.4,3.7-0.1,7.5,0.8,11.1c0.3,1,0.6,1.8,0.9,2.6c-0.7,1.3-1.8,2.2-3.2,2.6c-0.7,0.3-1.6,0.3-2.3,0c-0.6-0.4-1.1-1-1.2-1.8
			c-0.2-0.7-0.3-1.5-0.3-2.2l-2-38.7l-9.7,4l1.9,35.9c0,0.7,0.1,1.5,0.2,2.2c-0.9,1.4-1.8,2.8-2.9,4c-1.6,1.7-3.6,2.9-5.8,3.4
			c-1.3,0.5-2.7,0.4-4-0.2c-1-0.6-1.8-2-2.4-4.2c-0.1-0.5-0.3-1.4-0.6-2.8c2.6-0.9,5.1-2.4,7.1-4.3c2-1.8,3.5-4.1,4.4-6.6
			c0.9-2.4,1-5,0.3-7.5c-1.2-4.3-4.2-5.8-9.2-4.5c-4,0.9-7.4,3.4-9.4,6.9c-2,3.5-3.2,7.3-3.4,11.3c-0.3,3.6,0.1,7.3,0.9,10.8
			c0.3,1,0.6,1.9,0.9,2.7c-0.5,1.1-1.5,2-2.7,2.3c-0.7,0.2-1.5,0.2-2.2,0c-0.6-0.4-1-1-1.2-1.8c-0.2-0.7-0.3-1.5-0.3-2.2l-1.3-24.4
			l-9.8,2.6l1.2,23.1c0,1.7-0.3,3.4-1,4.9c-0.5,1.2-1.6,2.1-2.8,2.5c-1.4,0.3-2.3-0.4-2.8-2.3c-0.2-0.6-0.3-1.3-0.3-2l-1.3-24.4
			l-9.8,2.6l1.2,23c0.1,1.5,0.3,3.1,0.6,4.6c0.7,2.7,1.9,4.6,3.6,5.6c1.8,1,3.9,1.3,5.8,0.6c1.8-0.5,3.5-1.4,4.8-2.7
			c1.7-1.8,2.9-4,3.5-6.4c0.6,1.8,1.8,3.3,3.4,4.2c1.6,0.8,3.4,0.9,5.1,0.4c2.7-0.8,5-2.4,6.7-4.6c0.6-0.7,1.1-1.6,1.5-2.5
			c0.6,0.6,1.3,1.2,2,1.6c2.3,1.2,5.1,1.4,8.5,0.5c5.4-1.4,9.5-4.9,12.5-10.4c0.7,1.9,1.8,3.2,3.1,4c1.8,1,3.9,1.3,5.8,0.6
			c2.8-0.8,5.2-2.5,7.1-4.7c0.6-0.7,1.2-1.6,1.7-2.6c0.6,0.7,1.2,1.2,1.9,1.6c2.1,1.3,4.7,1.7,7.2,1c4-1.1,6.8-4.1,8.4-9
			c0.6,1.7,1.8,3.1,3.4,4.1c1.5,0.8,3.3,1,5,0.4c1.5-0.3,2.8-1.3,3.5-2.6c0.8-1.9,1.3-4,1.4-6.1C429.6,224.8,429.1,225,428.6,225.2z
			 M365.4,220.1c0.8-3.3,2-5.1,3.6-5.5c1.1-0.3,1.9,0.5,2.4,2.3c0.5,1.9,0.5,3.8,0,5.7c-0.5,1.9-1.3,3.6-2.6,5.1
			c-1.1,1.4-2.6,2.5-4.3,3C364.3,227.1,364.6,223.6,365.4,220.1z M413.9,227.4L413.9,227.4c-0.6,1.1-1.6,2-2.9,2.4
			c-0.9,0.3-1.9,0.2-2.7-0.3c-0.8-0.5-1.5-1.8-2.1-4.1c-0.6-2.7-0.9-5.4-0.9-8.1c0-2.9,0.4-5.8,1.4-8.5c0.9-2.5,2.2-4,4-4.5
			c0.8-0.3,1.6-0.2,2.3,0.3c0.5,0.4,1,0.9,1.2,1.5l0.8,16.2C415.1,224.1,414.8,225.9,413.9,227.4z"/>
		<path class="st3" d="M220.5,252.6c-0.5,0.4-1.1,0.8-1.7,0.9c-1.3,0.4-2.1-0.3-2.6-2c-0.1-0.3-0.1-0.6-0.2-0.9
			c1.2-0.4,2.3-1.1,3.2-1.9c0.9-0.8,1.6-1.9,2-3c0.4-1.1,0.4-2.3,0.1-3.4c-0.5-2-1.9-2.6-4.2-2c-1.8,0.4-3.4,1.5-4.3,3.1
			c-0.9,1.6-1.4,3.3-1.5,5.1c-0.1,1.6,0,3.3,0.4,4.9c0.1,0.4,0.2,0.8,0.4,1.2c-0.3,0.5-0.7,0.8-1.2,1c-0.3,0.1-0.7,0.1-1,0
			c-0.3-0.2-0.5-0.5-0.5-0.8c-0.1-0.3-0.1-0.7-0.1-1l-0.9-17.5L204,238l0.3,7.3c-0.1-0.4-0.5-0.8-0.9-0.9c-0.7-0.2-1.4-0.2-2,0.1
			c-1.6,0.4-3,1.5-3.8,2.9c-0.9,1.5-1.4,3.2-1.6,5c-0.2,1.7,0,3.4,0.4,5.1c0.2,1.4,1,2.6,2.2,3.4c1,0.6,2.1,0.7,3.2,0.3
			c0.9-0.2,1.8-0.7,2.4-1.5c0.6-0.8,1.1-1.6,1.4-2.5c0.3,0.7,0.8,1.3,1.5,1.7c0.7,0.3,1.5,0.4,2.2,0.1c1.7-0.5,2.9-1.5,3.7-3.1
			c0.3,0.3,0.6,0.6,1,0.8c1.2,0.6,2.6,0.7,3.8,0.2c3-0.8,4.3-2.8,4.1-6C221.6,251.6,221.1,252.1,220.5,252.6z M204.4,256.7
			c-0.3,0.5-0.8,0.9-1.3,1.1c-0.4,0.1-0.8,0.1-1.2-0.1c-0.5-0.5-0.9-1.1-1-1.9c-0.3-1.2-0.4-2.4-0.4-3.7c0-1.3,0.2-2.6,0.6-3.9
			c0.2-0.9,0.9-1.7,1.8-2c0.6-0.2,1.3,0.1,1.6,0.7l0.4,7.4l0,0.2C205,255.3,204.8,256,204.4,256.7z M215.9,249
			c-0.1-1.6,0-3.2,0.4-4.8c0.4-1.5,0.9-2.3,1.6-2.5c0.5-0.1,0.9,0.2,1.1,1.1c0.2,0.8,0.2,1.7,0,2.6c-0.2,0.9-0.6,1.7-1.2,2.3l0,0
			C217.4,248.3,216.7,248.8,215.9,249z"/>
	</g>
	<g>
		<polygon class="st3" points="215.9,138 212.9,134.6 212,139.1 207.8,140.9 211.8,143.1 212.2,147.7 215.6,144.6 220,145.6 
			218.1,141.4 220.4,137.5 		"/>
		<polygon class="st3" points="200.9,144.2 198.6,141.6 197.9,145 194.8,146.4 197.8,148 198.1,151.5 200.6,149.1 204,149.9 
			202.5,146.8 204.3,143.8 		"/>
		<polygon class="st3" points="188.9,150 187.5,148.5 187.1,150.5 185.2,151.3 187,152.3 187.2,154.4 188.7,153 190.7,153.4 
			189.9,151.6 190.9,149.8 		"/>
		<polygon class="st3" points="231,136.1 228.8,133.6 228.1,136.9 224.9,138.3 227.9,140 228.2,143.4 230.8,141.1 234.1,141.8 
			232.7,138.7 234.4,135.7 		"/>
		<polygon class="st3" points="245.2,135.3 243.2,135.5 241.8,133.9 241.4,136 239.5,136.8 241.3,137.8 241.5,139.8 243,138.4 
			245,138.9 244.1,137 		"/>
	</g>
</g>
</svg>
