<?xml version="1.0" encoding="utf-8"?>
<!-- Generator: Adobe Illustrator 25.3.1, SVG Export Plug-In . SVG Version: 6.00 Build 0)  -->
<svg version="1.1" id="Capa_2_1_" xmlns="http://www.w3.org/2000/svg" xmlns:xlink="http://www.w3.org/1999/xlink" x="0px" y="0px"
	 viewBox="0 0 441.5 374.3" style="enable-background:new 0 0 441.5 374.3;" xml:space="preserve">
<style type="text/css">
	.st0{enable-background:new    ;}
	.st1{fill:#FFFFFF;}
</style>
<g>
	<g id="Capa_3_copia">
		<g class="st0">
			<path class="st1" d="M113.4,258.1l4.3,6.7l-1.3,0.8l-5.3-8.1l14.3-9.3l0.9,1.5L113.4,258.1z"/>
		</g>
		<g class="st0">
			<path class="st1" d="M118.2,267.9l-1.2-1.5l17.7-5.2l1.1,1.3l-8.4,16.5l-1.2-1.5l2.2-4.3l-5.6-6.7L118.2,267.9z M124.4,265.9
				l4.8,5.7l4.5-8.6L124.4,265.9z"/>
		</g>
		<g class="st0">
			<path class="st1" d="M145.2,290.7L145.2,290.7l13.1-7.8l2.1,1.6l-10.3,13.7l-1.4-1l8.9-11.9l0,0l-13.9,8.1l-0.7-0.6l4-15.6l0,0
				l-8.9,11.9l-1.4-1l10.3-13.7l2.1,1.6L145.2,290.7z"/>
		</g>
		<g class="st0">
			<path class="st1" d="M155,300.9l-1.7-0.9l14.4-11.5l1.5,0.8l-1.5,18.4l-1.7-0.9l0.4-4.8l-7.7-4.1L155,300.9z M160.1,296.8
				l6.6,3.5l0.9-9.7L160.1,296.8z"/>
		</g>
		<g class="st0">
			<path class="st1" d="M176.8,292.9l5.3,1.9c1,0.4,1.9,0.9,2.8,1.6c0.9,0.7,1.6,1.5,2.2,2.5c0.6,1,0.9,2,1,3.2s0,2.4-0.5,3.8
				c-0.5,1.3-1.2,2.4-2,3.2c-0.9,0.8-1.8,1.4-2.9,1.8c-1.1,0.4-2.1,0.5-3.3,0.5c-1.1,0-2.2-0.2-3.2-0.6l-5.3-1.9L176.8,292.9z
				 M173.2,308l3.2,1.2c1.2,0.4,2.3,0.6,3.4,0.6c1-0.1,2-0.3,2.8-0.7c0.8-0.4,1.5-0.9,2.1-1.6s1-1.4,1.3-2.3
				c0.3-0.8,0.4-1.7,0.4-2.6s-0.2-1.7-0.6-2.6c-0.4-0.8-0.9-1.6-1.7-2.3s-1.7-1.3-2.9-1.7l-3.2-1.2L173.2,308z"/>
		</g>
		<g class="st0">
			<path class="st1" d="M190.6,315l-1.7-0.4l3.5-16.6l4.9,1c0.8,0.2,1.5,0.4,2.2,0.7c0.7,0.3,1.2,0.7,1.6,1.1c0.4,0.5,0.7,1,0.9,1.6
				s0.2,1.3,0,2.1c-0.1,0.6-0.4,1.1-0.7,1.6s-0.7,0.8-1.2,1.1c-0.5,0.3-1,0.5-1.5,0.6c-0.6,0.1-1.2,0.1-1.8,0.1l3.2,8.9l-2.1-0.4
				l-3-8.7l-2.8-0.6L190.6,315z M192.5,305.8l2.9,0.6c1.4,0.3,2.5,0.3,3.3-0.1c0.8-0.3,1.4-1,1.6-2c0.1-0.5,0.1-1,0-1.4
				s-0.3-0.8-0.7-1.1c-0.3-0.3-0.7-0.6-1.2-0.8c-0.5-0.2-1.1-0.4-1.7-0.5l-3-0.6L192.5,305.8z"/>
		</g>
		<g class="st0">
			<path class="st1" d="M204.5,317.5l-1.7-0.2l2.1-16.9l1.7,0.2L204.5,317.5z"/>
		</g>
		<g class="st0">
			<path class="st1" d="M221,316L221,316l0.5-14.5l1.7,0.1l-0.5,17l-2.2-0.1l-9.4-14.9l0,0l-0.4,14.6l-1.7-0.1l0.5-17l2.2,0.1
				L221,316z"/>
		</g>
		<g class="st0">
			<path class="st1" d="M228.1,318.3l-1.9,0.2l5.3-17.7l1.7-0.2l9.2,16l-1.9,0.2l-2.4-4.2l-8.7,1L228.1,318.3z M229.8,312l7.4-0.9
				l-4.8-8.5L229.8,312z"/>
		</g>
		<g class="st0">
			<path class="st1" d="M265.2,307.4L265.2,307.4l-4.7-13.6l1.6-0.6l5.6,16l-2,0.7l-14.1-10.5l0,0l4.8,13.8l-1.6,0.6l-5.6-16l2-0.7
				L265.2,307.4z"/>
		</g>
		<g class="st0">
			<path class="st1" d="M272.7,307l-1.7,0.9l-1.3-18.4l1.5-0.8l14.3,11.7l-1.7,0.9l-3.7-3.1l-7.8,4L272.7,307z M272.2,300.5l6.6-3.4
				l-7.5-6.3L272.2,300.5z"/>
		</g>
		<g class="st0">
			<path class="st1" d="M296.7,289.3L296.7,289.3l-8.5-11.7l1.4-1l10,13.7l-1.7,1.3l-16.6-5.9l0,0l8.6,11.8l-1.4,1l-10-13.7l1.7-1.3
				L296.7,289.3z"/>
		</g>
		<g class="st0">
			<path class="st1" d="M312.3,274.8c0.1,0.5,0.1,1,0.1,1.6s-0.1,1.1-0.3,1.7c-0.2,0.6-0.4,1.2-0.8,1.7c-0.3,0.6-0.8,1.1-1.3,1.7
				c-0.9,0.9-1.9,1.6-3,2s-2.2,0.7-3.3,0.6c-1.1,0-2.2-0.3-3.3-0.7s-2.1-1.2-3-2.1s-1.6-1.9-2-3s-0.7-2.2-0.6-3.3
				c0-1.1,0.2-2.2,0.7-3.3c0.5-1.1,1.1-2.1,2-2.9c0.4-0.4,0.9-0.8,1.4-1.1c0.5-0.3,1-0.6,1.6-0.8c0.5-0.2,1.1-0.3,1.6-0.4
				s1.1-0.1,1.6,0l-0.3,1.7c-0.3-0.1-0.7-0.1-1.1-0.1s-0.8,0.1-1.2,0.2c-0.4,0.1-0.9,0.3-1.3,0.6c-0.4,0.2-0.8,0.5-1.2,0.9
				c-0.8,0.8-1.4,1.6-1.7,2.5c-0.3,0.9-0.5,1.8-0.5,2.7s0.3,1.8,0.7,2.7c0.4,0.9,0.9,1.6,1.6,2.3s1.5,1.3,2.3,1.7
				c0.9,0.4,1.7,0.6,2.6,0.7s1.8-0.1,2.7-0.4s1.7-0.9,2.5-1.6c0.7-0.7,1.2-1.5,1.6-2.4c0.3-0.9,0.4-1.9,0.2-2.9L312.3,274.8z"/>
		</g>
		<g class="st0">
			<path class="st1" d="M319.8,269.5l-1.1,1.4l-5.8-4.5l-11.5-1l1.3-1.7l9.6,1.1l-3.3-9.1l1.2-1.6l3.7,11L319.8,269.5z"/>
		</g>
		<g class="st0">
			<path class="st1" d="M137.5,115.3l-0.8,0.9l-7.6-6.9l-2.5,2.8l-0.8-0.7l5.9-6.5l0.8,0.7l-2.5,2.8L137.5,115.3z"/>
		</g>
		<g class="st0">
			<path class="st1" d="M134.9,108.4c-0.2-0.2-0.4-0.4-0.6-0.6l0.7-0.7c0.2,0.1,0.3,0.3,0.5,0.4c0.2,0.2,0.3,0.3,0.4,0.4l0,0
				c-0.2-0.5-0.2-0.9-0.1-1.4c0.1-0.5,0.4-0.9,0.7-1.3c0.1-0.1,0.2-0.2,0.3-0.3c0.1-0.1,0.2-0.1,0.3-0.2l0.6,0.8
				c-0.1,0-0.2,0.1-0.3,0.2s-0.2,0.2-0.3,0.3c-0.2,0.2-0.4,0.4-0.5,0.7c-0.1,0.3-0.2,0.5-0.1,0.8c0,0.3,0.1,0.6,0.3,1
				c0.2,0.3,0.4,0.7,0.8,1l2.7,2.7l-0.8,0.8l-4.1-4.1C135.3,108.8,135.1,108.6,134.9,108.4z"/>
		</g>
		<g class="st0">
			<path class="st1" d="M142.9,103.3c-0.4-0.5-0.9-0.7-1.3-0.7c-0.5,0-0.9,0.2-1.4,0.6c-0.3,0.3-0.6,0.6-0.8,1s-0.3,0.8-0.3,1.1
				l-0.9-0.1c0-0.4,0.2-0.9,0.4-1.4s0.6-0.9,1.1-1.4c0.3-0.3,0.6-0.5,1-0.6c0.3-0.2,0.7-0.2,1-0.2s0.7,0.1,1,0.2s0.7,0.4,1,0.7
				l2.2,2.4c0.2,0.2,0.4,0.4,0.6,0.6c0.2,0.2,0.4,0.4,0.6,0.5l-0.7,0.7c-0.1-0.1-0.3-0.2-0.5-0.4c-0.2-0.1-0.3-0.3-0.4-0.4l0,0
				c0.1,0.6,0,1.1-0.1,1.6c-0.2,0.5-0.5,0.9-0.9,1.3c-0.2,0.2-0.5,0.4-0.7,0.5c-0.3,0.1-0.6,0.2-0.9,0.3c-0.3,0-0.6,0-0.9-0.1
				c-0.3-0.1-0.6-0.3-0.9-0.6c-0.4-0.4-0.6-0.9-0.6-1.3s0.1-0.9,0.4-1.3c0.3-0.5,0.6-0.9,1-1.4s0.9-0.9,1.4-1.4L142.9,103.3z
				 M143.4,104.3c-0.3,0.3-0.7,0.6-1,0.9s-0.6,0.7-0.8,1s-0.3,0.7-0.3,1s0.1,0.6,0.3,0.9c0.2,0.2,0.4,0.3,0.6,0.4
				c0.2,0.1,0.4,0.1,0.6,0.1c0.2,0,0.4-0.1,0.6-0.2c0.2-0.1,0.4-0.2,0.5-0.4c0.3-0.3,0.5-0.5,0.6-0.8s0.2-0.6,0.2-0.9
				s-0.1-0.6-0.2-0.9c-0.1-0.3-0.3-0.6-0.5-0.8l-0.4-0.4L143.4,104.3z"/>
		</g>
		<g class="st0">
			<path class="st1" d="M152.3,100.3c0,0.6-0.1,1.1-0.3,1.6c-0.3,0.5-0.6,0.9-1,1.3c-0.5,0.4-0.9,0.6-1.4,0.7s-1,0.2-1.5,0.1
				s-0.9-0.2-1.4-0.5c-0.4-0.3-0.8-0.6-1.2-1.1c-0.3-0.4-0.6-0.9-0.7-1.4s-0.2-1-0.1-1.5c0-0.5,0.2-1,0.5-1.4
				c0.2-0.5,0.6-0.9,1.1-1.2c0.4-0.3,0.9-0.6,1.5-0.7s1.1-0.1,1.7,0.1l0,0l-3.6-4.7l0.9-0.7l7.4,9.5l-0.9,0.7L152.3,100.3
				L152.3,100.3z M146.4,101.7c0.3,0.3,0.5,0.6,0.9,0.8s0.7,0.4,1,0.4c0.4,0.1,0.7,0.1,1.1,0c0.4-0.1,0.7-0.3,1.1-0.6
				c0.3-0.3,0.6-0.6,0.8-0.9s0.3-0.7,0.3-1.1s0-0.7-0.1-1.1s-0.3-0.7-0.6-1.1c-0.3-0.3-0.6-0.6-0.9-0.8c-0.3-0.2-0.7-0.3-1.1-0.4
				c-0.4-0.1-0.7,0-1.1,0.1c-0.4,0.1-0.7,0.3-1.1,0.5c-0.4,0.3-0.6,0.6-0.8,0.9s-0.3,0.7-0.3,1.1s0,0.7,0.2,1.1
				S146.1,101.4,146.4,101.7z"/>
		</g>
		<g class="st0">
			<path class="st1" d="M150.7,90.4c0.1,0.2,0.2,0.4,0.1,0.6c0,0.2-0.2,0.4-0.3,0.5c-0.2,0.1-0.3,0.2-0.6,0.1
				c-0.2,0-0.4-0.1-0.5-0.3c-0.1-0.2-0.2-0.4-0.1-0.6c0-0.2,0.2-0.4,0.3-0.5c0.2-0.1,0.3-0.2,0.6-0.1
				C150.4,90.1,150.5,90.2,150.7,90.4z M156.4,99l-0.9,0.6l-4.3-6.2l0.9-0.6L156.4,99z"/>
		</g>
		<g class="st0">
			<path class="st1" d="M159.4,90.2c-0.3-0.1-0.7-0.2-1.1-0.2c-0.4,0-0.8,0.1-1.1,0.4c-0.4,0.2-0.7,0.5-0.9,0.8s-0.4,0.7-0.4,1
				c-0.1,0.4-0.1,0.7,0,1.1s0.2,0.8,0.5,1.1c0.2,0.4,0.5,0.7,0.8,0.9s0.6,0.4,1,0.5s0.7,0.1,1.1,0.1c0.4-0.1,0.8-0.2,1.1-0.4
				c0.4-0.3,0.7-0.5,0.9-0.9c0.2-0.3,0.3-0.7,0.3-1l1,0.1c-0.1,0.5-0.2,1-0.5,1.4s-0.7,0.8-1.2,1.2c-0.5,0.3-1,0.5-1.6,0.6
				c-0.5,0.1-1,0.1-1.5,0s-0.9-0.3-1.3-0.6c-0.4-0.3-0.8-0.7-1.1-1.2s-0.5-1-0.6-1.5s-0.1-1,0-1.5s0.3-0.9,0.6-1.4
				c0.3-0.4,0.7-0.8,1.2-1.1c0.4-0.3,0.9-0.4,1.5-0.5s1.1,0,1.6,0.2L159.4,90.2z"/>
		</g>
		<g class="st0">
			<path class="st1" d="M159.9,84.6c0.1,0.2,0.1,0.4,0.1,0.6c-0.1,0.2-0.2,0.4-0.4,0.4s-0.4,0.1-0.6,0.1c-0.2,0-0.4-0.2-0.5-0.4
				c-0.1-0.2-0.1-0.4-0.1-0.6s0.2-0.4,0.4-0.4c0.2-0.1,0.4-0.1,0.6-0.1C159.6,84.3,159.8,84.4,159.9,84.6z M164.8,93.8l-0.9,0.5
				l-3.7-6.5l0.9-0.5L164.8,93.8z"/>
		</g>
		<g class="st0">
			<path class="st1" d="M171.4,86.2c0.3,0.5,0.4,1,0.4,1.5s0,1-0.2,1.5s-0.4,0.9-0.8,1.3c-0.3,0.4-0.8,0.7-1.3,1s-1,0.4-1.6,0.4
				c-0.5,0-1,0-1.5-0.2s-0.9-0.4-1.3-0.7c-0.4-0.3-0.7-0.8-1-1.3s-0.4-1-0.4-1.5s0-1,0.2-1.5s0.4-0.9,0.8-1.3c0.3-0.4,0.8-0.7,1.3-1
				s1-0.4,1.6-0.5c0.5,0,1,0,1.5,0.2s0.9,0.4,1.3,0.7C170.8,85.2,171.1,85.7,171.4,86.2z M165.7,83.1l-0.8,0.4l0.4-2.8l1.3-0.6
				L165.7,83.1z M170.4,86.7c-0.2-0.4-0.4-0.7-0.7-1s-0.6-0.5-0.9-0.6c-0.3-0.1-0.7-0.2-1.1-0.2c-0.4,0-0.8,0.1-1.2,0.3
				c-0.4,0.2-0.7,0.4-0.9,0.7c-0.2,0.3-0.4,0.6-0.5,1S165,87.6,165,88s0.2,0.8,0.3,1.1s0.4,0.7,0.7,1s0.6,0.5,0.9,0.6
				c0.3,0.1,0.7,0.2,1.1,0.2c0.4,0,0.8-0.1,1.2-0.3c0.4-0.2,0.7-0.4,1-0.7c0.2-0.3,0.4-0.6,0.5-1s0.1-0.7,0.1-1.1
				C170.7,87.4,170.6,87.1,170.4,86.7z"/>
		</g>
		<g class="st0">
			<path class="st1" d="M172.1,81.8c0.1,0.2,0.2,0.4,0.3,0.6s0.2,0.4,0.2,0.6l0,0c0-0.5,0.2-0.9,0.6-1.4c0.3-0.4,0.8-0.8,1.3-1
				c0.9-0.4,1.6-0.4,2.3,0c0.7,0.3,1.2,0.9,1.5,1.8l1.7,4.3l-1,0.4l-1.6-3.9c-0.1-0.4-0.3-0.7-0.5-1s-0.4-0.5-0.6-0.6
				c-0.2-0.2-0.5-0.2-0.8-0.3c-0.3,0-0.6,0-1,0.2c-0.3,0.1-0.5,0.3-0.7,0.5s-0.4,0.5-0.5,0.8s-0.1,0.6-0.1,1s0.1,0.8,0.3,1.3
				l1.5,3.6l-1,0.4l-2.2-5.4c-0.1-0.2-0.2-0.4-0.3-0.7c-0.1-0.3-0.3-0.6-0.4-0.8L172.1,81.8z"/>
		</g>
		<g class="st0">
			<path class="st1" d="M189.9,82c-0.2,0.6-0.5,1-0.9,1.4s-0.9,0.7-1.4,0.8c-0.6,0.2-1.1,0.2-1.6,0.2c-0.5-0.1-1-0.2-1.4-0.4
				c-0.4-0.2-0.8-0.6-1.1-1s-0.6-0.9-0.7-1.4c-0.2-0.5-0.2-1.1-0.2-1.6s0.2-1,0.4-1.4s0.5-0.8,0.9-1.1c0.4-0.3,0.9-0.6,1.4-0.7
				c0.5-0.2,1.1-0.2,1.6-0.1c0.6,0.1,1.1,0.3,1.5,0.7l0,0l-1.7-5.7l1-0.3l3.5,11.6l-1,0.3L189.9,82L189.9,82z M183.8,81.2
				c0.1,0.4,0.3,0.8,0.5,1.1c0.2,0.3,0.5,0.6,0.8,0.8c0.3,0.2,0.7,0.3,1,0.4c0.4,0,0.8,0,1.2-0.1s0.7-0.3,1-0.6
				c0.3-0.2,0.5-0.5,0.7-0.9c0.2-0.3,0.3-0.7,0.3-1.1s0-0.8-0.1-1.2c-0.1-0.4-0.3-0.8-0.5-1.1c-0.2-0.3-0.5-0.6-0.9-0.7
				c-0.3-0.2-0.7-0.3-1.1-0.4c-0.4,0-0.8,0-1.2,0.1s-0.8,0.3-1.1,0.6c-0.3,0.3-0.5,0.5-0.7,0.9s-0.2,0.7-0.3,1.1
				C183.7,80.5,183.7,80.8,183.8,81.2z"/>
		</g>
		<g class="st0">
			<path class="st1" d="M198.8,77.3c0,0.1,0,0.2,0.1,0.2s0,0.2,0,0.3l-6.1,1.3c0.1,0.4,0.2,0.7,0.4,1s0.5,0.5,0.7,0.7
				c0.3,0.2,0.6,0.3,1,0.4s0.7,0.1,1.1,0c0.6-0.1,1-0.4,1.3-0.7c0.3-0.3,0.6-0.7,0.7-1.1l0.9,0.5c-0.3,0.6-0.7,1.1-1.2,1.5
				s-1,0.6-1.6,0.7c-0.5,0.1-1.1,0.1-1.6,0s-1-0.3-1.4-0.5c-0.4-0.3-0.8-0.6-1.1-1s-0.5-0.9-0.6-1.5s-0.1-1.1-0.1-1.6
				c0.1-0.5,0.3-1,0.5-1.4c0.3-0.4,0.6-0.8,1-1.1c0.4-0.3,0.9-0.5,1.4-0.6c0.6-0.1,1.1-0.1,1.6,0s0.9,0.3,1.3,0.5
				c0.4,0.3,0.7,0.6,0.9,1C198.5,76.3,198.7,76.8,198.8,77.3z M197.6,77.2c-0.2-0.7-0.5-1.2-1-1.6s-1.1-0.5-1.9-0.3
				c-0.4,0.1-0.7,0.2-0.9,0.4c-0.3,0.2-0.5,0.4-0.7,0.7c-0.2,0.3-0.3,0.6-0.4,0.9c-0.1,0.3-0.1,0.6,0,0.9L197.6,77.2z"/>
		</g>
		<g class="st0">
			<path class="st1" d="M203.9,74.7c-0.2-0.3-0.5-0.5-0.8-0.6c-0.4-0.1-0.7-0.2-1.1-0.1c-0.2,0-0.4,0.1-0.6,0.2
				c-0.2,0.1-0.3,0.2-0.5,0.3c-0.1,0.1-0.2,0.3-0.3,0.4c-0.1,0.2-0.1,0.3-0.1,0.5c0.1,0.3,0.2,0.6,0.5,0.7s0.8,0.2,1.4,0.3
				c0.9,0,1.6,0.2,2,0.5c0.5,0.3,0.7,0.7,0.8,1.3c0.1,0.4,0,0.8-0.1,1.1c-0.1,0.3-0.3,0.6-0.5,0.8c-0.2,0.2-0.5,0.4-0.8,0.5
				s-0.6,0.2-1,0.3c-0.6,0.1-1.1,0.1-1.7-0.1s-1-0.4-1.5-0.9l0.8-0.8c0.2,0.3,0.6,0.5,1,0.7s0.8,0.2,1.3,0.1c0.2,0,0.4-0.1,0.7-0.2
				c0.2-0.1,0.4-0.2,0.5-0.3s0.2-0.3,0.3-0.5s0.1-0.4,0-0.6c-0.1-0.4-0.3-0.7-0.7-0.8c-0.4-0.1-1-0.2-1.7-0.3c-0.2,0-0.5,0-0.7-0.1
				c-0.3,0-0.5-0.1-0.7-0.2s-0.4-0.3-0.6-0.5c-0.2-0.2-0.3-0.5-0.3-0.8c-0.1-0.4,0-0.7,0.1-1s0.3-0.5,0.5-0.8s0.5-0.4,0.8-0.5
				s0.6-0.2,1-0.3c0.5-0.1,1,0,1.5,0.1s0.9,0.4,1.2,0.8L203.9,74.7z"/>
		</g>
		<g class="st0">
			<path class="st1" d="M212.7,78.3c-0.3,0.5-0.7,0.9-1.2,1.2c-0.5,0.3-1,0.4-1.5,0.5c-0.6,0-1.1,0-1.6-0.2s-0.9-0.4-1.3-0.7
				c-0.4-0.3-0.7-0.7-0.9-1.2s-0.4-1-0.4-1.5c0-0.6,0-1.1,0.2-1.6c0.1-0.5,0.4-0.9,0.7-1.3s0.7-0.7,1.1-0.9c0.5-0.2,1-0.4,1.6-0.4
				c0.5,0,1.1,0,1.6,0.2s1,0.5,1.3,1l0,0l-0.5-5.9l1.1-0.1l1,12l-1.1,0.1L212.7,78.3L212.7,78.3z M207,76.3c0,0.4,0.1,0.8,0.3,1.2
				c0.2,0.4,0.4,0.7,0.6,0.9c0.3,0.3,0.6,0.4,0.9,0.6c0.4,0.1,0.8,0.2,1.2,0.1c0.4,0,0.8-0.1,1.1-0.3s0.6-0.4,0.9-0.7s0.4-0.6,0.5-1
				s0.2-0.8,0.1-1.2c0-0.4-0.1-0.8-0.3-1.2c-0.2-0.4-0.4-0.7-0.7-0.9c-0.3-0.2-0.6-0.4-1-0.6c-0.4-0.1-0.7-0.2-1.2-0.1
				c-0.4,0-0.8,0.1-1.2,0.3c-0.3,0.2-0.6,0.4-0.8,0.7c-0.2,0.3-0.4,0.6-0.5,1C207,75.5,207,75.9,207,76.3z"/>
		</g>
		<g class="st0">
			<path class="st1" d="M222.3,75.4c0,0.1,0,0.2,0,0.2s0,0.2,0,0.3l-6.2,0.1c0,0.4,0.1,0.7,0.2,1.1c0.1,0.3,0.3,0.6,0.6,0.9
				c0.2,0.2,0.5,0.4,0.9,0.6c0.3,0.1,0.7,0.2,1.1,0.2c0.6,0,1.1-0.1,1.5-0.4s0.7-0.6,0.9-0.9l0.8,0.6c-0.4,0.6-0.9,1-1.5,1.2
				c-0.5,0.3-1.1,0.4-1.7,0.4c-0.6,0-1.1-0.1-1.5-0.3s-0.9-0.5-1.2-0.8s-0.6-0.8-0.8-1.2c-0.2-0.5-0.3-1-0.3-1.6s0.1-1.1,0.3-1.6
				s0.4-0.9,0.8-1.3c0.3-0.4,0.7-0.6,1.2-0.8c0.5-0.2,1-0.3,1.5-0.3c0.6,0,1.1,0.1,1.6,0.3c0.5,0.2,0.8,0.5,1.1,0.8s0.5,0.7,0.7,1.2
				C222.2,74.4,222.3,74.9,222.3,75.4z M221.2,75c0-0.7-0.3-1.3-0.7-1.7c-0.4-0.5-1-0.7-1.8-0.7c-0.4,0-0.7,0.1-1,0.2
				s-0.6,0.3-0.8,0.6c-0.2,0.2-0.4,0.5-0.6,0.8c-0.1,0.3-0.2,0.6-0.2,0.9L221.2,75z"/>
		</g>
		<g class="st0">
			<path class="st1" d="M230.9,79.9l-1.1-0.1l0.9-9.9l-2.2,1.6l-0.6-0.9l3.1-2.1l1,0.1L230.9,79.9z"/>
		</g>
		<g class="st0">
			<path class="st1" d="M240,76.1L240,76.1c-0.2,0.1-0.5,0.1-0.8,0.2c-0.3,0-0.6,0-0.9,0c-0.5-0.1-0.9-0.2-1.3-0.5
				c-0.4-0.2-0.7-0.5-1-0.9c-0.3-0.3-0.4-0.8-0.5-1.2c-0.1-0.5-0.1-0.9,0-1.4s0.2-1,0.5-1.4c0.2-0.4,0.6-0.7,0.9-1
				c0.4-0.3,0.8-0.4,1.3-0.5s1-0.1,1.5,0s1,0.2,1.4,0.5c0.4,0.2,0.8,0.5,1,0.9c0.3,0.4,0.5,0.8,0.6,1.2c0.1,0.5,0.1,1,0,1.5
				c-0.1,0.6-0.3,1.1-0.6,1.6s-0.6,0.9-0.9,1.3l-3.8,4.4l-1.3-0.2L240,76.1z M241.5,73.2c0.1-0.4,0-0.7,0-1
				c-0.1-0.3-0.2-0.6-0.4-0.9s-0.4-0.5-0.7-0.7s-0.6-0.3-1-0.4s-0.7,0-1,0c-0.3,0.1-0.6,0.2-0.9,0.4c-0.3,0.2-0.5,0.4-0.6,0.7
				c-0.2,0.3-0.3,0.6-0.3,1c-0.1,0.4-0.1,0.7,0,1s0.2,0.6,0.4,0.9s0.4,0.5,0.7,0.7s0.6,0.3,1,0.4s0.7,0.1,1.1,0s0.6-0.2,0.9-0.4
				s0.5-0.4,0.6-0.7C241.4,73.9,241.5,73.6,241.5,73.2z"/>
		</g>
		<g class="st0">
			<path class="st1" d="M251.2,73.2l-6.8,9l-1.3-0.3L250,73l-5.4-1.3l0.2-1l6.5,1.6L251.2,73.2z"/>
		</g>
		<g class="st0">
			<path class="st1" d="M256.6,85.6l-6.9-2.2l0.4-1.1l5.9-3.1c0.2-0.1,0.4-0.2,0.6-0.4c0.2-0.1,0.4-0.3,0.6-0.5s0.4-0.4,0.5-0.6
				s0.3-0.4,0.3-0.7c0.1-0.3,0.1-0.6,0.1-0.9s-0.1-0.6-0.3-0.8c-0.1-0.2-0.3-0.5-0.6-0.6c-0.2-0.2-0.5-0.3-0.8-0.4
				c-0.6-0.2-1.1-0.2-1.6,0.1s-0.9,0.6-1.2,1.1l-1-0.6c0.2-0.4,0.4-0.7,0.7-0.9c0.3-0.3,0.6-0.5,1-0.6s0.8-0.2,1.2-0.2
				c0.4,0,0.8,0,1.3,0.2c0.4,0.1,0.8,0.3,1.2,0.6c0.4,0.3,0.6,0.5,0.8,0.9c0.2,0.3,0.3,0.7,0.4,1.2c0.1,0.4,0,0.9-0.1,1.4
				c-0.1,0.3-0.3,0.7-0.5,0.9c-0.2,0.3-0.4,0.5-0.7,0.7c-0.2,0.2-0.5,0.4-0.8,0.6s-0.6,0.3-0.9,0.5l-5.1,2.6l5.7,1.8L256.6,85.6z"/>
		</g>
		<g>
			<path class="st1" d="M219.8,285.8c-25.3,0-50.4-10-69-29.9c-4.5-4.8-8.4-10-11.8-15.7c-0.7-1.2-0.3-2.7,0.8-3.4
				c1.2-0.7,2.7-0.3,3.4,0.8c3.2,5.3,7,10.3,11.2,14.8c33.6,36,90.3,38,126.3,4.3c1-0.9,2.6-0.9,3.5,0.1c0.9,1,0.9,2.6-0.1,3.5
				C266,277.4,242.9,285.8,219.8,285.8z"/>
		</g>
		<g>
			<path class="st1" d="M134,161.2c-0.3,0-0.6-0.1-0.9-0.2c-1.3-0.5-1.9-1.9-1.4-3.2c18.6-48.6,73.2-72.9,121.8-54.3
				c9,3.4,17.3,8.2,24.9,14.2c1.1,0.9,1.3,2.4,0.4,3.5s-2.4,1.3-3.5,0.4c-7.1-5.7-15-10.2-23.5-13.4c-46-17.6-97.7,5.5-115.3,51.4
				C136,160.6,135,161.2,134,161.2z"/>
		</g>
		<g>
			<path class="st1" d="M219.9,340.1c-16.2,0-32.4-2.7-48.1-8c-38.1-13-69.7-41.4-86.6-77.9c-0.6-1.3,0-2.7,1.2-3.3s2.7,0,3.3,1.2
				c16.4,35.2,46.9,62.7,83.7,75.2c36.3,12.4,75.2,9.9,109.6-7s60.2-46.2,72.6-82.4c0.4-1.3,1.9-2,3.2-1.6c1.3,0.4,2,1.9,1.6,3.2
				c-12.8,37.5-39.5,67.8-75.1,85.3C264.5,335,242.3,340.1,219.9,340.1z"/>
		</g>
		<g>
			<path class="st1" d="M82.5,144.5c-0.3,0-0.6,0-0.9-0.1c-1.3-0.5-2-1.9-1.5-3.2c13.5-37.3,40.7-67.1,76.6-83.9
				s76.2-18.7,113.5-5.2c27.4,9.9,51.1,27.5,68.5,50.9c0.8,1.1,0.6,2.7-0.5,3.5s-2.7,0.6-3.5-0.5c-16.8-22.6-39.7-39.6-66.2-49.2
				c-74.4-26.9-156.8,11.7-183.8,86.1C84.5,143.8,83.5,144.5,82.5,144.5z"/>
		</g>
	</g>
	<g>
		<path class="st1" d="M394.3,252.7L394.3,252.7c1.3-3.8,4.1-6.4,7.3-7.3l33.4-9l0.1-1.7c0.1-1.6-0.1-3.2-0.5-4.8l-5.9-22.2
			c-1.2-4.2-0.9-8.8,1-12.8c8-16.1,16.1-40.6,9.2-66.3s-26.2-42.9-41.1-52.8c-3.6-2.6-6.1-6.3-7.2-10.6L384.7,43
			c-0.4-1.6-1.1-3.1-2-4.4l-1-1.4l-33.4,9c-3.3,0.9-6.9-0.1-10-2.7C291.9,4.7,229.8-9.3,172.2,6.2S67.8,64.8,47.1,121.6
			c-1.3,3.8-4,6.4-7.3,7.3l-33.4,9l-0.1,1.7c-0.1,1.6,0.1,3.2,0.5,4.8l5.9,22.2c1.2,4.2,0.9,8.7-0.9,12.7
			c-8,16.1-16.1,40.6-9.2,66.3s26.1,42.9,41.1,52.8c3.6,2.6,6.1,6.3,7.2,10.6l5.9,22.2c0.4,1.6,1.1,3,2,4.4l1,1.4l33.4-9
			c3.3-0.9,6.9,0.1,10,2.7c46.4,38.9,108.4,52.9,166.1,37.4C326.7,352.7,373.6,309.6,394.3,252.7z M267.7,362.7
			c-56.5,15.1-117.2,1.5-162.5-36.5c-4.2-3.5-9.1-4.8-13.5-3.6l-30.5,8.2c-0.1-0.2-0.2-0.5-0.3-0.7L55,307.9
			c-1.4-5.8-4.9-10.8-9.7-14.3c-14.1-9.4-32.2-25.5-38.6-49.1s1.3-46.7,8.9-61.8c2.5-5.4,2.9-11.5,1.3-17.2L11,143.3
			c0-0.2-0.1-0.5-0.1-0.7l30.5-8.2c4.5-1.2,8.1-4.8,9.9-9.9c20.1-55.6,65.9-97.8,122.3-112.9s117.2-1.5,162.5,36.5
			c4.2,3.5,9.1,4.8,13.5,3.6l30.5-8.2c0.1,0.2,0.2,0.4,0.3,0.7l5.9,22.2c1.4,5.8,4.9,10.8,9.7,14.3c14.1,9.4,32.2,25.5,38.6,49.1
			s-1.3,46.7-8.9,61.8c-2.5,5.4-2.9,11.5-1.3,17.2l6,22.2c0,0.2,0.1,0.5,0.1,0.7l-30.5,8.2c-4.5,1.2-8.1,4.8-9.9,9.9l0,0
			C370,305.4,324.2,347.6,267.7,362.7z"/>
	</g>
	<g id="Tamales">
		<path class="st1" d="M92.1,163.9c4.7-1.2,8-3.4,9.8-6.5s2.1-7.2,0.9-12.3c-3.9,2.8-8.2,4.9-12.9,6.1c-4.5,1.1-9.1,1.9-13.7,2.3
			c-5.7,0.6-11.4,1.6-17,3c-9.2,2.5-16.4,5.9-21.6,10.3c-5.2,4.4-8.6,9.3-10.1,14.6s-1.5,10.9,0,16.2c1.1,4.1,2.9,6.7,5.4,7.9
			s5.9,1.2,10.1,0.1c-0.4-0.6-0.8-1.2-1.3-1.7c-0.9-1-1.7-2.9-2.4-5.8c-2.4-8.8-2.1-15.5,0.9-20c2.9-4.5,7.9-7.7,14.8-9.6l1.4-0.4
			l4,82.1l16.9-4.5l-4-79.5c4.8-0.3,8.6-0.6,11.2-0.9C87,165,89.6,164.5,92.1,163.9z"/>
		<path class="st1" d="M225.4,206.7c4.3-1.3,8-3.9,10.6-7.5c0.8-1.1,1.5-2.3,2.2-3.8c0.9,0.9,1.8,1.6,2.8,2.2
			c3.7,2.2,8.2,2.8,12.3,1.5c3.6-0.9,6.7-2.8,9.1-5.6c2.4-2.9,4.2-6.3,5.5-9.8c1.4,3.4,3.3,5.7,5.8,7c2.7,1.3,5.8,1.5,8.6,0.6
			c4.3-1.2,8.1-3.8,11.6-7.9c0.8-1,1.6-2.2,2.3-3.5c1,1.3,2.1,2.4,3.3,3.1c3,1.8,6.6,2.2,10,1.2c4.4-1.2,8.5-3.9,12.3-8.1
			c1.2-1.3,2.2-2.9,3-4.7c1.1,1.2,2.2,2.1,3.6,2.8c4,2.1,8.9,2.4,14.7,0.9c8.4-2.3,15.1-7.4,20.1-15.5c0.4,0.5,0.8,1,1.2,1.5
			c2,2,4.5,3.4,7.2,4.1c3.3,0.8,6.8,0.6,10-0.3c3.7-1,7.2-2.7,10.3-4.9c3.2-2.3,5.7-5.4,7.2-8.9c1.6-3.7,1.8-7.9,0.5-12.7
			c-0.6-2.1-1.7-5.5-3.3-10c-4-11.4-7.6-22-10.7-31.9l-16.7,7c-0.3,7-0.8,13.6-1.6,19.8c-0.8,6.3-2,12.5-3.5,18.7
			c-1.6,1.4-2.7,3.3-3.3,5.3c-0.7,2.3-0.7,4.7-0.1,7c-0.8,1.1-1.7,2.2-2.6,3.3c-2.7,2.9-6.2,4.9-10,5.8c-3,0.8-5.3,0.7-7-0.3
			s-3.1-3.4-4.1-7.3c-0.2-0.8-0.6-2.4-1-4.7c4.5-1.5,8.7-4,12.2-7.3c3.4-3.2,6-7.1,7.6-11.5c1.5-4.2,1.7-8.8,0.5-13.1
			c-2-7.5-7.3-10.1-15.9-7.8c-7.3,2-12.7,5.9-16.2,11.9s-5.5,12.7-5.8,19.6c-0.4,6.3,0.1,12.5,1.6,18.6c0.4,1.5,0.9,3,1.5,4.3
			c0,0,0,0.1-0.1,0.1c-1.2,2.2-3.2,3.8-5.6,4.5c-1.3,0.5-2.7,0.5-3.9,0c-1.1-0.7-1.8-1.8-2-3c-0.3-1.3-0.5-2.6-0.5-3.9l-3.5-66.8
			l-16.7,7l3.2,62c0.1,2.6,0.5,5.3,1.1,7.9c0,0.1,0.1,0.3,0.1,0.4c-0.8,2.2-2.6,3.8-4.8,4.5c-3.2,0.9-5.3-0.4-6.1-3.8
			c-0.3-1.3-0.5-2.6-0.5-3.9l-2.2-42l-16.9,4.5l0.4,6.5L263,139c-0.4-1.8-1.8-3.2-3.5-3.7c-1.8-0.7-4.4-0.6-7.6,0.3
			c-6.1,1.6-11.4,5.5-14.6,11c-3.4,5.8-5.5,12.2-6,18.9c-0.6,6.4-0.2,12.9,1.4,19.1c0.5,1.8,1,3.4,1.7,4.9l0,0c-0.9,2-2.8,3.5-4.9,4
			c-1.3,0.5-2.8,0.4-4-0.3c-1-0.8-1.8-2-2-3.3c-0.4-1.8-0.6-3.7-0.7-5.6c-0.1-2.4-0.2-4.9-0.2-7.5c0-4.3-0.2-7.8-0.4-10.7
			c-0.1-2.6-0.5-5.2-1.2-7.8c-1.3-4.5-3.3-7.5-6.2-9.1s-6.4-1.8-10.4-0.7c-6.5,1.7-11.1,6.5-13.6,14.3c-3-6.4-7.9-8.7-14.7-6.8
			c-5.5,1.5-10.1,5.3-12.5,10.5l-0.4-6.4l-16.9,4.5l2.6,49.5c-0.9,1.5-2.4,2.6-4.1,3c-3.2,0.9-5.2-0.4-6.1-3.7
			c-0.3-1.3-0.5-2.6-0.5-3.9l-2.3-42L119,172l0.4,6.5l-0.2-0.8c-0.4-1.8-1.8-3.2-3.5-3.7c-1.8-0.7-4.4-0.6-7.6,0.3
			c-6.1,1.6-11.4,5.5-14.6,11c-3.4,5.8-5.4,12.2-5.9,18.9c-0.7,6.4-0.2,12.9,1.4,19.1c1.7,6.5,4.5,10.8,8.3,13.1
			c3.7,2.3,8.2,2.8,12.4,1.6c3.6-0.9,6.7-2.8,9.1-5.6c2.4-2.9,4.2-6.3,5.5-9.8c1.3,3.4,3.2,5.8,5.7,7.1c2.7,1.3,5.8,1.5,8.6,0.6
			c4-1.1,7.6-3.5,10.8-7.1l0.2,3.4l16.9-4.5l-2.1-39.7c0-3,0.5-6.1,1.7-8.9c0.8-2.2,2.6-3.9,4.9-4.5c2.3-0.6,4,0.8,4.9,4.2
			c0.3,1,0.4,2,0.4,3l2.3,42.7l16.8-4.6l-2.1-39.8c0-3,0.5-6,1.7-8.8c0.7-2.1,2.5-3.8,4.6-4.4c2.8-0.7,4.7,0.9,5.8,4.8
			c0.5,2.2,0.8,4.4,0.9,6.7c0.2,2.8,0.3,5.6,0.4,8.5c0,0.6,0,2,0.1,4c0.1,2.1,0.2,4.2,0.4,6.4c0.1,1.9,0.4,3.8,0.9,5.7
			c0.8,3.5,2.9,6.5,5.9,8.5C216.8,207.7,220.6,208,225.4,206.7z M372.9,115.9c1.1,3,3.2,8.8,6.3,17.5c1.3,3.2,2.4,6.4,3.3,9.6
			c1,3.8,0.8,6.9-0.7,9.1l0,0c-1.6,2.3-3.9,3.8-6.6,4.4c-2.5,0.7-4.5,0.5-6-0.5c-1.1-0.7-1.9-1.9-2.6-3.5c0.2-0.5,0.4-0.9,0.6-1.4
			c0.6,0.2,1.4,0.1,2.3-0.1c1.4-0.4,2.7-1.4,3.3-2.7c0.7-1.4,0.8-2.9,0.4-4.4c-0.5-1.8-2-3.1-3.8-3.3
			C371.3,132.4,372.5,124.2,372.9,115.9z M336.4,126.9c1.4-5.6,3.5-8.8,6.3-9.6c1.9-0.5,3.4,0.8,4.2,4c0.9,3.2,0.9,6.6,0,9.8
			c-0.8,3.2-2.3,6.3-4.4,8.8l0,0c-1.9,2.4-4.5,4.3-7.5,5.2C334.6,139,335,132.9,336.4,126.9z M248.1,164.1c-0.1-5,0.7-10,2.3-14.7
			c1.5-4.3,3.9-6.8,7-7.7c1.3-0.5,2.8-0.3,4,0.5c0.9,0.6,1.6,1.6,2,2.7l1.5,28c0.2,3-0.4,6-1.9,8.6l0,0c-1,2-2.8,3.5-5,4.3
			c-1.5,0.4-3.2,0.3-4.6-0.5s-2.7-3.1-3.7-7C248.5,173.6,248,168.9,248.1,164.1z M119.2,220L119.2,220c-1.4,2.4-3.1,3.8-5.1,4.3
			c-1.5,0.4-3.2,0.3-4.6-0.5s-2.6-3.1-3.7-7c-1.1-4.6-1.6-9.3-1.5-14.1c0-5,0.7-10,2.3-14.7c1.5-4.3,3.9-6.8,7-7.7
			c1.3-0.5,2.8-0.3,4,0.5c0.9,0.6,1.6,1.6,2,2.7l1.5,28C121.4,214.4,120.7,217.4,119.2,220z"/>
		<path class="st1" d="M280.7,244.9c-0.6-0.4-1-1-1.2-1.8c-0.2-0.7-0.3-1.5-0.3-2.2l-1.3-24.4l-9.8,2.6l0.2,3.8l-0.1-0.5
			c-0.2-1-1-1.9-2-2.2c-1.4-0.4-3-0.3-4.4,0.2c-3.6,0.9-6.6,3.2-8.4,6.4c-2,3.3-3.2,7.1-3.5,11c-0.4,3.7-0.1,7.5,0.8,11.1
			c0.1,0.4,0.2,0.9,0.4,1.3c-0.7,1.1-1.6,2-2.5,2.9c-2,1.8-4.3,3.1-6.9,3.7c-3.1,0.8-5.4,0.5-7.1-1c-1.7-1.5-2.9-3.9-3.9-7.4
			c-1.3-4.9-1.9-9.9-1.8-14.9c-0.1-4.7,0.6-9.3,1.9-13.8c1.3-3.9,3.1-6.1,5.5-6.8c1.1-0.4,2.4-0.3,3.5,0.3c0.9,0.7,1.5,1.6,1.8,2.7
			c0.4,1.3,0.4,2.7,0.1,4c-0.2,1.1-0.7,2.2-1.5,3c1.2,0.9,2.9,1.2,4.3,0.7c1.4-0.3,2.6-1.3,3.1-2.6c0.5-1.6,0.4-3.3-0.1-4.9
			c-0.8-3.1-2.5-5.1-4.9-6c-2.9-0.9-5.9-1-8.8,0c-5.2,1.2-9.6,4.7-12,9.5c-2.5,5-3.9,10.5-4,16.1c-0.2,5.4,0.4,10.7,1.7,15.9
			c1.6,6,3.9,9.9,7,11.9c3.1,1.9,7.2,2.2,12.3,0.9c5.3-1.5,9.8-4.8,12.9-9.3c0.4-0.5,0.7-1.1,1-1.7c0.8,1.3,1.7,2.2,2.9,2.9
			c2.1,1.3,4.7,1.7,7.2,1c4-1.1,6.8-4.1,8.4-9c0.6,1.7,1.8,3.1,3.4,4.1c1.5,0.8,3.3,1,5,0.4c1.5-0.3,2.8-1.3,3.5-2.6
			c0.8-1.9,1.3-4,1.4-6.1c-0.4,0.3-0.9,0.6-1.4,0.7C282.3,245.2,281.5,245.2,280.7,244.9z M268.3,247.1c-0.6,1.2-1.7,2.1-2.9,2.5
			c-0.9,0.3-1.8,0.2-2.7-0.3c-0.8-0.5-1.5-1.8-2.2-4.1c-0.6-2.7-0.9-5.4-0.9-8.2c0-2.9,0.4-5.8,1.4-8.5c0.9-2.5,2.2-3.9,4-4.5
			c0.8-0.3,1.6-0.2,2.3,0.3c0.5,0.4,1,0.9,1.1,1.5l1,16.4C269.5,243.9,269.2,245.6,268.3,247.1L268.3,247.1z"/>
		<path class="st1" d="M309.8,234.1c-0.7-0.5-1.7-0.6-2.5-0.3c-1,0.2-1.9,0.8-2.5,1.7c-0.5,0.7-0.7,1.5-0.5,2.3
			c0.1,0.4,0.3,0.7,0.6,0.9c0.3,0.2,0.7,0.3,1.1,0.2c0.1,0.9-0.9,1.7-2.8,2.2c-1.2,0.3-2.5,0.5-3.7,0.7c-0.7,0.1-1.3,0.2-1.5,0.3
			l8.9-33.1l-17.4,4.7c-1.5,0.4-2.8,1.1-3.8,2.2c-1,1-1.7,2.2-2,3.5c-0.4,1.1-0.4,2.2-0.2,3.3c0.2,0.8,0.7,1.6,1.5,1.9
			c0.7,0.4,1.6,0.4,2.4,0.2c0.9-0.2,1.8-0.8,2.3-1.6c0.6-0.9,0.7-2,0.4-3c-0.2-0.7-0.4-1-0.7-1.1s-0.5-0.1-0.5-0.2
			c-0.1-0.5,0.1-0.8,0.7-1.1c0.9-0.4,1.8-0.7,2.8-1l3.8-1.1l-9.1,34.9l18-4.8c1.5-0.4,2.9-1.2,4-2.3c1-1,1.8-2.2,2.2-3.6
			c0.4-1.2,0.4-2.4,0.1-3.6C311,235.4,310.5,234.6,309.8,234.1z"/>
		<path class="st1" d="M416,209.4c-0.7,0.3-1.6,0.3-2.3,0c-0.6-0.4-1-1-1.2-1.8c-0.2-0.7-0.3-1.5-0.3-2.2l-1.3-24.4l-9.8,2.6
			l0.2,3.8l-0.1-0.5c-0.2-1-1-1.9-2-2.2c-1.4-0.4-3-0.3-4.4,0.2c-3.6,0.9-6.6,3.2-8.4,6.4c-2,3.3-3.2,7.1-3.5,11
			c-0.4,3.7-0.1,7.5,0.8,11.1c0.3,1,0.6,1.8,0.9,2.6c-0.7,1.3-1.8,2.2-3.2,2.6c-0.7,0.3-1.6,0.3-2.3,0c-0.6-0.4-1.1-1-1.2-1.8
			c-0.2-0.7-0.3-1.5-0.3-2.2l-2-38.7l-9.7,4l1.9,35.9c0,0.7,0.1,1.5,0.2,2.2c-0.9,1.4-1.8,2.8-2.9,4c-1.6,1.7-3.6,2.9-5.8,3.4
			c-1.3,0.5-2.7,0.4-4-0.2c-1-0.6-1.8-2-2.4-4.2c-0.1-0.5-0.3-1.4-0.6-2.8c2.6-0.9,5.1-2.4,7.1-4.3c2-1.8,3.5-4.1,4.4-6.6
			c0.9-2.4,1-5,0.3-7.5c-1.2-4.3-4.2-5.8-9.2-4.5c-4,0.9-7.4,3.4-9.4,6.9s-3.2,7.3-3.4,11.3c-0.3,3.6,0.1,7.3,0.9,10.8
			c0.3,1,0.6,1.9,0.9,2.7c-0.5,1.1-1.5,2-2.7,2.3c-0.7,0.2-1.5,0.2-2.2,0c-0.6-0.4-1-1-1.2-1.8c-0.2-0.7-0.3-1.5-0.3-2.2l-1.3-24.4
			l-9.8,2.6l1.2,23.1c0,1.7-0.3,3.4-1,4.9c-0.5,1.2-1.6,2.1-2.8,2.5c-1.4,0.3-2.3-0.4-2.8-2.3c-0.2-0.6-0.3-1.3-0.3-2l-1.3-24.4
			l-9.8,2.6l1.2,23c0.1,1.5,0.3,3.1,0.6,4.6c0.7,2.7,1.9,4.6,3.6,5.6c1.8,1,3.9,1.3,5.8,0.6c1.8-0.5,3.5-1.4,4.8-2.7
			c1.7-1.8,2.9-4,3.5-6.4c0.6,1.8,1.8,3.3,3.4,4.2c1.6,0.8,3.4,0.9,5.1,0.4c2.7-0.8,5-2.4,6.7-4.6c0.6-0.7,1.1-1.6,1.5-2.5
			c0.6,0.6,1.3,1.2,2,1.6c2.3,1.2,5.1,1.4,8.5,0.5c5.4-1.4,9.5-4.9,12.5-10.4c0.7,1.9,1.8,3.2,3.1,4c1.8,1,3.9,1.3,5.8,0.6
			c2.8-0.8,5.2-2.5,7.1-4.7c0.6-0.7,1.2-1.6,1.7-2.6c0.6,0.7,1.2,1.2,1.9,1.6c2.1,1.3,4.7,1.7,7.2,1c4-1.1,6.8-4.1,8.4-9
			c0.6,1.7,1.8,3.1,3.4,4.1c1.5,0.8,3.3,1,5,0.4c1.5-0.3,2.8-1.3,3.5-2.6c0.8-1.9,1.3-4,1.4-6.1C417,209,416.5,209.2,416,209.4z
			 M352.8,204.3c0.8-3.3,2-5.1,3.6-5.5c1.1-0.3,1.9,0.5,2.4,2.3c0.5,1.9,0.5,3.8,0,5.7s-1.3,3.6-2.6,5.1c-1.1,1.4-2.6,2.5-4.3,3
			C351.7,211.3,352,207.8,352.8,204.3z M401.3,211.6L401.3,211.6c-0.6,1.1-1.6,2-2.9,2.4c-0.9,0.3-1.9,0.2-2.7-0.3
			c-0.8-0.5-1.5-1.8-2.1-4.1c-0.6-2.7-0.9-5.4-0.9-8.1c0-2.9,0.4-5.8,1.4-8.5c0.9-2.5,2.2-4,4-4.5c0.8-0.3,1.6-0.2,2.3,0.3
			c0.5,0.4,1,0.9,1.2,1.5l0.8,16.2C402.5,208.3,402.2,210.1,401.3,211.6z"/>
		<path class="st1" d="M207.9,236.8c-0.5,0.4-1.1,0.8-1.7,0.9c-1.3,0.4-2.1-0.3-2.6-2c-0.1-0.3-0.1-0.6-0.2-0.9
			c1.2-0.4,2.3-1.1,3.2-1.9c0.9-0.8,1.6-1.9,2-3s0.4-2.3,0.1-3.4c-0.5-2-1.9-2.6-4.2-2c-1.8,0.4-3.4,1.5-4.3,3.1
			c-0.9,1.6-1.4,3.3-1.5,5.1c-0.1,1.6,0,3.3,0.4,4.9c0.1,0.4,0.2,0.8,0.4,1.2c-0.3,0.5-0.7,0.8-1.2,1c-0.3,0.1-0.7,0.1-1,0
			c-0.3-0.2-0.5-0.5-0.5-0.8c-0.1-0.3-0.1-0.7-0.1-1l-0.9-17.5l-4.4,1.7l0.3,7.3c-0.1-0.4-0.5-0.8-0.9-0.9c-0.7-0.2-1.4-0.2-2,0.1
			c-1.6,0.4-3,1.5-3.8,2.9c-0.9,1.5-1.4,3.2-1.6,5c-0.2,1.7,0,3.4,0.4,5.1c0.2,1.4,1,2.6,2.2,3.4c1,0.6,2.1,0.7,3.2,0.3
			c0.9-0.2,1.8-0.7,2.4-1.5c0.6-0.8,1.1-1.6,1.4-2.5c0.3,0.7,0.8,1.3,1.5,1.7c0.7,0.3,1.5,0.4,2.2,0.1c1.7-0.5,2.9-1.5,3.7-3.1
			c0.3,0.3,0.6,0.6,1,0.8c1.2,0.6,2.6,0.7,3.8,0.2c3-0.8,4.3-2.8,4.1-6C209,235.8,208.5,236.3,207.9,236.8z M191.8,240.9
			c-0.3,0.5-0.8,0.9-1.3,1.1c-0.4,0.1-0.8,0.1-1.2-0.1c-0.5-0.5-0.9-1.1-1-1.9c-0.3-1.2-0.4-2.4-0.4-3.7s0.2-2.6,0.6-3.9
			c0.2-0.9,0.9-1.7,1.8-2c0.6-0.2,1.3,0.1,1.6,0.7l0.4,7.4v0.2C192.4,239.5,192.2,240.2,191.8,240.9z M203.3,233.2
			c-0.1-1.6,0-3.2,0.4-4.8c0.4-1.5,0.9-2.3,1.6-2.5c0.5-0.1,0.9,0.2,1.1,1.1c0.2,0.8,0.2,1.7,0,2.6c-0.2,0.9-0.6,1.7-1.2,2.3l0,0
			C204.8,232.5,204.1,233,203.3,233.2z"/>
	</g>
	<g>
		<polygon class="st1" points="203.3,122.2 200.3,118.8 199.4,123.3 195.2,125.1 199.2,127.3 199.6,131.9 203,128.8 207.4,129.8 
			205.5,125.6 207.8,121.7 		"/>
		<polygon class="st1" points="188.3,128.4 186,125.8 185.3,129.2 182.2,130.6 185.2,132.2 185.5,135.7 188,133.3 191.4,134.1 
			189.9,131 191.7,128 		"/>
		<polygon class="st1" points="176.3,134.2 174.9,132.7 174.5,134.7 172.6,135.5 174.4,136.5 174.6,138.6 176.1,137.2 178.1,137.6 
			177.3,135.8 178.3,134 		"/>
		<polygon class="st1" points="218.4,120.3 216.2,117.8 215.5,121.1 212.3,122.5 215.3,124.2 215.6,127.6 218.2,125.3 221.5,126 
			220.1,122.9 221.8,119.9 		"/>
		<polygon class="st1" points="232.6,119.5 230.6,119.7 229.2,118.1 228.8,120.2 226.9,121 228.7,122 228.9,124 230.4,122.6 
			232.4,123.1 231.5,121.2 		"/>
	</g>
</g>
</svg>
